<svg width="126" height="48" viewBox="0 0 126 48" fill="none" xmlns="http://www.w3.org/2000/svg">
<path fill-rule="evenodd" clip-rule="evenodd" d="M9.86757 35.6716H3.1311L16.0333 7L21.275 15.5H26.0916L31.3333 7L44.2355 35.6716H37.5243L36.717 41L31.3334 41H16.0334L10.6749 41L9.86757 35.6716Z" fill="#FFCE00"/>
<circle cx="18.8667" cy="24" r="1.7" fill="#313131"/>
<circle cx="28.5" cy="24" r="1.7" fill="#313131"/>
<path d="M33.0334 22.8666H40.9667L42.1001 25.1333H33.6001L33.0334 22.8666Z" fill="#313131"/>
<path d="M14.3333 22.8666H6.39998L5.26665 25.1333H13.7666L14.3333 22.8666Z" fill="#313131"/>
<path d="M33.0334 27.9666H43.8001L44.9334 30.2333H33.6001L33.0334 27.9666Z" fill="#313131"/>
<path d="M14.3333 27.9666H4.13331L2.99998 30.2333H13.7666L14.3333 27.9666Z" fill="#313131"/>
<path d="M55.1133 35.3555V32.707C55.543 32.5586 55.8633 32.2305 56.0742 31.7227C56.3164 31.1445 56.4961 30.3984 56.6133 29.4844L57.9258 19.4648H55.1836V17.2734H58.2422L58.4414 15.5156H60.7148L60.4688 17.2734H62.8359C64.1172 17.2734 65.043 17.6133 65.6133 18.293C65.9648 18.7148 66.1875 19.1641 66.2812 19.6406C66.3125 19.8125 66.3281 20.1172 66.3281 20.5547V32.0391C66.3281 32.9766 66.1211 33.7031 65.707 34.2188C65.1055 34.9766 64.3203 35.3555 63.3516 35.3555H60.082V33.1875H62.7305C63.6836 33.1875 64.1602 32.7109 64.1602 31.7578V20.7773C64.1602 20.3398 64.0078 20 63.7031 19.7578C63.4609 19.5625 63.0586 19.4648 62.4961 19.4648H60.1758L58.7578 29.7539C58.5547 31.293 58.168 32.4961 57.5977 33.3633C56.9492 34.3633 56.1211 35.0273 55.1133 35.3555ZM67.582 32.8359V17.9297C67.582 17.2422 67.7734 16.7109 68.1562 16.3359C68.5469 15.9453 69.0508 15.75 69.668 15.75H74.4844C76.0078 15.75 76.7695 16.5234 76.7695 18.0703V33.0234C76.7695 34.5781 76.0234 35.3555 74.5312 35.3555H70.0781C69.4766 35.3555 69.0352 35.293 68.7539 35.168C68.1523 34.9102 67.7812 34.4531 67.6406 33.7969C67.6016 33.6016 67.582 33.2812 67.582 32.8359ZM74.6016 32.4961V18.5156C74.6016 18.125 74.3359 17.9297 73.8047 17.9297H70.582C70.2852 17.9297 70.0703 17.9922 69.9375 18.1172C69.8125 18.2344 69.75 18.4531 69.75 18.7734V32.2734C69.75 32.8906 69.9648 33.1992 70.3945 33.1992H73.7109C74.3047 33.1992 74.6016 32.9648 74.6016 32.4961ZM78.7388 17.7891V15.5391H82.8169V17.7891H78.7388ZM84.1528 32.2148V30.1055C84.5903 29.9727 84.852 29.7148 84.938 29.332C85.0395 28.8867 85.1372 28.1523 85.2309 27.1289H87.3872C87.2231 28.7852 86.9888 29.9297 86.6841 30.5625C86.2231 31.5469 85.3794 32.0977 84.1528 32.2148ZM91.102 19.8867V18.75H84.1528V16.582H91.102V15.5273L93.27 15.5156V16.582H100.254V18.75H93.27V19.8867L97.7348 19.875C99.2817 19.8672 100.055 20.6523 100.055 22.2305V24.2812C100.055 25.0938 99.8559 25.6953 99.4575 26.0859C99.1138 26.4219 98.5278 26.5898 97.6997 26.5898H93.27V32.2383H91.102V26.5898H86.4145C84.9067 26.5898 84.1528 25.8672 84.1528 24.4219V22.0078C84.1528 21.3203 84.3442 20.7969 84.727 20.4375C85.1411 20.0547 85.7036 19.8672 86.4145 19.875L91.102 19.8867ZM91.102 24.4102V22.0312L87.1059 22.0078C86.5825 22.0078 86.3208 22.25 86.3208 22.7344V23.7891C86.3208 24.2109 86.5825 24.4219 87.1059 24.4219L91.102 24.4102ZM93.27 24.4102L97.1958 24.4219C97.4927 24.4219 97.6919 24.3555 97.7934 24.2227C97.8481 24.1445 97.8755 23.9922 97.8755 23.7656V22.6992C97.8755 22.2383 97.6489 22.0078 97.1958 22.0078L93.27 22.0312V24.4102ZM96.9731 27.1289H99.1177L99.2114 27.9727C99.313 28.9492 99.4223 29.5234 99.5395 29.6953C99.7114 29.9375 99.9302 30.0664 100.196 30.082V32.2266C99.0317 32.125 98.1841 31.5508 97.6528 30.5039C97.4028 30.0195 97.2309 29.375 97.1372 28.5703C97.1216 28.4062 97.102 28.2383 97.0786 28.0664C97.063 27.8555 97.0278 27.543 96.9731 27.1289ZM78.7036 35.4492V33.3398C79.7661 33.1445 80.2973 32.5156 80.2973 31.4531V23.918C80.2973 23.2383 79.9458 22.8984 79.2427 22.8984H78.7036V20.7188H79.8403C80.7231 20.7188 81.3677 20.8906 81.7739 21.2344C82.227 21.625 82.4536 22.3125 82.4536 23.2969V31.6523C82.4536 32.7383 83.0552 33.2812 84.2583 33.2812H100.313V35.4492H84.5044C83.7075 35.4492 83.0552 35.3398 82.5473 35.1211C82.188 34.9648 81.8013 34.6953 81.3872 34.3125C80.9497 34.7109 80.5552 34.9883 80.2036 35.1445C79.8052 35.3242 79.3052 35.4258 78.7036 35.4492ZM110.192 19.1719V17.0039H111.833V15.5039H114.013V17.0039H119.919V15.5039H122.099V17.0039H123.845V19.1719H122.099V20.8242H119.919V19.1719H114.013V20.8242H111.833V19.1719H110.192ZM121.735 35.4375H112.009C111.509 35.4375 111.067 35.25 110.685 34.875C110.31 34.5078 110.122 33.9727 110.122 33.2695V23.8594C110.122 23.1875 110.317 22.6484 110.708 22.2422C111.075 21.8594 111.509 21.668 112.009 21.668H121.642C122.329 21.668 122.868 21.8633 123.259 22.2539C123.649 22.6445 123.845 23.1094 123.845 23.6484V32.9531C123.845 33.7188 123.743 34.2461 123.54 34.5352C123.126 35.1367 122.524 35.4375 121.735 35.4375ZM115.97 33.2695V29.4727H112.302V32.6836C112.302 33.0742 112.497 33.2695 112.888 33.2695H115.97ZM112.302 27.3164H115.97V23.8594H112.923C112.509 23.8594 112.302 24.0312 112.302 24.375V27.3164ZM118.138 33.2695H121.079C121.485 33.2695 121.688 33.0664 121.688 32.6602V29.4727H118.138V33.2695ZM118.138 27.3164H121.688V24.5039C121.688 24.082 121.478 23.8711 121.056 23.8711L118.138 23.8594V27.3164ZM102.212 32.8828V18.4336C102.212 17.5664 102.345 16.957 102.61 16.6055C103.001 16.0898 103.509 15.832 104.134 15.832H107.04C107.579 15.832 108.04 16.0273 108.423 16.418C108.798 16.8008 108.985 17.3828 108.985 18.1641L108.997 32.9531C108.997 33.7031 108.903 34.2188 108.716 34.5C108.302 35.125 107.669 35.4375 106.817 35.4375H104.497C103.755 35.4375 103.196 35.25 102.821 34.875C102.595 34.6562 102.446 34.4414 102.376 34.2305C102.267 33.8945 102.212 33.4453 102.212 32.8828ZM106.841 32.2031V19.0664C106.841 18.6836 106.79 18.4141 106.688 18.2578C106.587 18.0859 106.38 18 106.067 18H105.165C104.79 18 104.556 18.0938 104.462 18.2812C104.407 18.375 104.38 18.6367 104.38 19.0664V32.1211C104.38 32.6211 104.427 32.9414 104.52 33.082C104.606 33.207 104.774 33.2695 105.024 33.2695H105.95C106.302 33.2695 106.536 33.2109 106.653 33.0938C106.778 32.9688 106.841 32.6719 106.841 32.2031Z" fill="#28282A"/>
</svg>
