<svg width="490" height="360" viewBox="0 0 490 360" fill="none" xmlns="http://www.w3.org/2000/svg">
<rect width="490" height="360" rx="8" fill="#EEF8FF"/>
<path fill-rule="evenodd" clip-rule="evenodd" d="M214.407 54.193L214.603 54.2928C219.538 58.165 224.471 62.0376 229.405 65.9101L229.411 65.9143L229.416 65.9184L239.61 73.9198L256.762 54.9706C257.164 54.6721 257.371 54.8178 257.371 54.8178C257.8 55.0752 257.745 55.3213 257.745 55.3213C257.713 55.5381 257.712 55.5408 257.599 55.7286L240.094 75.0676C239.869 75.2374 239.614 75.2814 239.327 75.1328L238.667 74.6147C231.047 68.6339 223.427 62.6532 215.807 56.6728L213.906 55.181C213.906 55.181 213.673 55.0842 213.711 54.5848L213.978 54.245C213.978 54.245 214.164 54.1746 214.407 54.193ZM183.395 63.7846L183.365 63.7675L183.147 63.7381L182.758 63.9278L151.998 98.7378L146.023 88.0022L145.684 87.7339L145.255 87.7835L144.987 88.1223L145.036 88.5513L151.083 99.4152C151.416 99.9929 152.279 100.081 152.728 99.6162C159.708 91.9522 166.533 84.1501 173.359 76.3479L173.359 76.3476C176.768 72.4511 180.176 68.5546 183.604 64.6752L183.745 64.2669C183.656 63.9325 183.517 63.854 183.395 63.7846ZM203.038 65.4419C203.422 65.4558 203.793 65.5845 204.103 65.8104C206.702 67.8003 209.268 69.8313 211.834 71.8623C213.111 72.8732 214.389 73.8841 215.67 74.89L229.566 85.7942L229.78 86.1905L229.636 86.6173L177.108 144.644C176.832 144.851 176.531 144.939 176.196 144.539L160.104 115.623C159.606 114.708 159.709 113.534 160.391 112.715C169.448 102.26 178.639 91.9234 187.83 81.5869C192.426 76.4185 197.022 71.2502 201.601 66.067C201.966 65.6643 202.493 65.4351 203.038 65.4419ZM256.013 79.4789L256.333 79.7691L256.355 80.2008L256.242 80.3897L252.35 84.6884L241.895 96.2415L241.785 96.3634C211.165 130.185 180.545 164.007 149.926 197.831L138.911 209.998L138.521 210.182L138.114 210.037L137.929 209.646L138.074 209.24C148.873 197.312 159.67 185.384 170.468 173.456L170.473 173.451L170.479 173.445L184.255 158.227L241.058 95.4835L251.513 83.9304L255.405 79.6317L255.795 79.4469L255.904 79.4629L256.013 79.4789ZM108.942 155.366C108.8 155.199 108.798 155.197 108.604 155.097C108.531 155.092 108.457 155.086 108.384 155.08L108.006 155.29C108.006 155.29 107.802 155.438 107.955 155.915L129.162 194.017C129.444 194.536 129.474 195.172 129.236 195.705C129.16 195.874 129.116 195.962 128.938 196.17C124.694 200.959 120.382 205.688 116.071 210.417L116.071 210.417L116.071 210.417L116.065 210.423L116.062 210.427C113.92 212.776 111.779 215.126 109.645 217.482L109.5 217.889L109.685 218.28C109.685 218.28 109.882 218.685 110.482 218.24L129.753 196.954C130.606 195.991 130.749 194.574 130.151 193.472L108.942 155.366ZM132.72 216.589C132.72 216.589 132.776 216.343 132.347 216.085L132.238 216.069L132.129 216.053L131.738 216.238L115.539 234.131L115.426 234.32L115.447 234.752C115.746 235.154 115.985 235.074 115.985 235.074L116.376 234.889L132.575 216.996L132.72 216.589ZM152.954 132.417C152.812 132.25 152.81 132.249 152.615 132.148C152.099 132.107 152.012 132.315 151.947 132.47C151.943 132.481 151.938 132.492 151.934 132.502C151.928 132.514 151.923 132.526 151.917 132.537L151.967 132.966L164.985 156.352L142.35 181.356C142.018 181.706 141.382 181.641 141.128 181.237C134.857 170.92 129.119 160.293 123.381 149.666C120.513 144.355 117.646 139.045 114.712 133.774C114.57 133.606 114.568 133.605 114.373 133.505C114.373 133.505 114.158 133.373 113.777 133.697C113.777 133.697 113.572 133.846 113.725 134.322L140.123 181.755C140.742 182.847 142.351 182.997 143.175 182.127C148.305 176.546 153.379 170.913 158.452 165.28L158.452 165.28L158.452 165.279L158.452 165.279L158.453 165.279L158.453 165.279L158.453 165.278L158.454 165.277L158.455 165.276L158.458 165.273L158.459 165.272L158.46 165.271L158.461 165.27C161.002 162.448 163.544 159.626 166.093 156.81L166.21 156.609L166.168 156.156L152.954 132.417ZM202.457 66.8039C202.592 66.6613 202.78 66.5774 202.977 66.571C203.139 66.5691 203.297 66.6199 203.428 66.7151C206.019 68.6994 208.578 70.7249 211.137 72.7504L211.137 72.7504L211.137 72.7505L211.137 72.7505L211.138 72.7508C212.415 73.7616 213.692 74.7725 214.973 75.7782L228.392 86.3083L176.8 143.301L161.093 115.079C160.811 114.561 160.876 113.896 161.252 113.445C174.835 97.7653 188.527 82.1762 202.457 66.8039ZM134.523 99.6426C134.718 99.7427 134.72 99.7442 134.862 99.9113L141.472 111.788L150.625 128.234L150.675 128.663C150.675 128.663 150.673 128.915 150.196 129.069C150.196 129.069 149.962 129.164 149.638 128.782L140.485 112.336L133.875 100.46L133.825 100.031C133.825 100.031 133.852 99.588 134.523 99.6426ZM274.735 59.4432L274.414 59.153C274.378 59.1477 274.341 59.1423 274.305 59.137C274.269 59.1316 274.233 59.1263 274.196 59.121L273.806 59.3058L260.228 74.3032L260.115 74.4922L260.136 74.9239L260.457 75.214C260.799 75.2644 260.925 75.1677 261.037 75.0824C261.047 75.0752 261.056 75.0681 261.065 75.0612L274.643 60.0638C274.82 59.7677 274.779 59.6134 274.744 59.4777C274.74 59.4661 274.737 59.4546 274.735 59.4432Z" fill="#DCD6E3"/>
<path d="M304.556 73.6613C304.986 73.9187 304.93 74.1648 304.93 74.1648L304.785 74.572C262.861 120.885 220.939 167.199 179.012 213.51L133.81 263.445L133.42 263.63L133.013 263.485L132.828 263.094L132.973 262.687C151.712 241.986 170.45 221.285 189.19 200.585L303.948 73.8141L304.338 73.6293C304.411 73.6398 304.483 73.6507 304.556 73.6613Z" fill="#DCD6E3"/>
<path d="M186.639 226.916C186.817 226.953 186.962 227.048 187.068 227.202L196.874 244.82C196.968 245.033 197.021 245.181 196.799 245.474L158.95 287.284C158.506 287.687 157.674 287.119 158.113 286.526L195.691 245.016L186.464 228.439L144.319 274.995C143.881 275.392 143.025 274.855 143.482 274.237L186.156 227.097C186.286 226.979 186.448 226.912 186.639 226.916Z" fill="#DCD6E3"/>
<path d="M204.189 259.665C204.76 259.69 205.29 260 205.59 260.486C208.726 265.922 211.694 271.453 214.746 276.937L219.553 285.571C219.553 285.571 219.686 285.898 219.544 286.135C219.341 286.474 218.805 286.473 218.566 286.12L213.759 277.487C210.713 272.013 207.751 266.491 204.621 261.065C204.436 260.766 203.987 260.715 203.74 260.964C193.343 272.105 183.286 283.559 173.058 294.857L172.212 295.779C171.734 296.087 170.996 295.548 171.447 294.954C181.933 283.378 192.411 271.796 202.893 260.217C203.231 259.855 203.592 259.657 204.189 259.665Z" fill="#DCD6E3"/>
<path d="M221.937 290.32C222.21 290.372 222.218 290.388 222.356 290.605L233.665 310.926C233.918 311.449 233.138 312.197 232.679 311.475L221.369 291.154C221.183 290.768 221.472 290.285 221.937 290.32Z" fill="#DCD6E3"/>
<path d="M271.274 269.894C271.941 269.915 272.534 270.434 272.638 271.097L277.259 303.847C277.291 304.407 276.313 304.762 276.141 304.005C274.6 293.083 273.538 282.084 271.517 271.241C271.484 271.085 271.306 270.986 271.153 271.042C259.845 275.542 248.474 279.922 237.43 285.037C237.271 285.116 237.205 285.325 237.292 285.487L250.869 309.882C251.116 310.427 250.338 311.111 249.883 310.431L236.301 286.028C235.92 285.32 236.225 284.351 236.978 284.002C248.161 279.187 259.47 274.667 270.716 270C270.894 269.93 270.989 269.894 271.274 269.894Z" fill="#DCD6E3"/>
<path d="M303.384 161.619L303.621 162.002L314.436 235.824L316.757 251.692L320.627 278.104L320.521 278.523L320.15 278.744C320.15 278.744 319.76 278.972 319.51 278.268L315.64 251.855L313.319 235.987L302.734 163.739C300.946 166.747 299.157 169.754 297.368 172.762L278.853 203.91C283.259 235.129 287.664 266.348 292.07 297.566L291.962 297.985L291.59 298.204L291.171 298.096L290.952 297.724C288.619 281.195 286.286 264.666 283.954 248.137L277.707 203.871L277.781 203.504C285.008 191.345 292.234 179.186 299.464 167.029L302.577 161.795L302.942 161.531C302.942 161.531 303.148 161.519 303.384 161.619Z" fill="#DCD6E3"/>
<path d="M350.526 236.973C351.008 237.081 351.192 237.786 350.658 238.052C344.441 240.638 338.141 243.032 332.009 245.811C331.792 245.915 331.661 246.159 331.693 246.4L334.25 263.846C334.292 264.382 334.047 264.429 333.812 264.48C333.508 264.546 333.202 264.324 333.133 264.01C332.279 258.182 331.36 252.362 330.571 246.525C330.488 245.793 330.915 245.051 331.594 244.76L350.224 237.009C350.444 236.935 350.457 236.967 350.526 236.973Z" fill="#DCD6E3"/>
<path d="M362.69 173.032C363.166 173.174 363.3 173.837 362.801 174.107L323.522 190.596L329.14 228.947L356.445 217.588C357.031 217.41 357.556 218.268 356.879 218.631L328.903 230.269C328.406 230.424 328.242 230.301 328.128 229.829L322.341 190.327C322.328 190.079 322.338 189.909 322.681 189.725L362.363 173.066C362.485 173.028 362.407 173.006 362.69 173.032Z" fill="#DCD6E3"/>
<path d="M360.598 157.037C361.087 157.135 361.245 157.869 360.736 158.116L343.02 165.554C342.473 165.75 341.808 164.889 342.583 164.513L360.299 157.075C360.418 157.033 360.454 157.024 360.598 157.037Z" fill="#DCD6E3"/>
<path d="M336.856 103.842C337.382 104.008 337.435 104.212 337.234 104.673C330.376 116.789 323.197 128.73 316.659 141.022C316.461 141.404 316.383 141.844 316.439 142.27C317.893 152.668 319.482 163.047 321.004 173.437C321.013 173.501 321.08 173.54 321.142 173.514L338.814 166.127C339.413 165.948 339.877 166.826 339.25 167.169L321.571 174.559C320.889 174.833 320.038 174.401 319.893 173.64C319.891 173.63 319.89 173.619 319.888 173.608C318.365 163.214 316.775 152.828 315.32 142.421C315.23 141.731 315.366 141.019 315.706 140.411L336.252 104.117C336.389 103.924 336.586 103.816 336.856 103.842Z" fill="#DCD6E3"/>
<path d="M200.315 297.541C200.736 297.559 201.13 297.795 201.341 298.161L206.797 307.967C207.303 308.983 206.097 308.978 205.811 308.516C203.993 305.25 202.176 301.984 200.358 298.717C200.328 298.664 200.256 298.655 200.213 298.701L194.346 305.183C193.918 305.614 193.041 304.992 193.509 304.425L199.382 297.937C199.621 297.681 199.959 297.536 200.315 297.541Z" fill="#DCD6E3"/>
<path d="M347.268 120.05C347.657 120.104 347.895 120.525 347.717 120.891C346.308 123.381 344.876 125.857 343.49 128.359C343.387 128.555 343.348 128.78 343.377 129L344.255 135.147L345.595 144.133L355.715 139.884C356.27 139.691 356.913 140.548 356.152 140.925C352.701 142.374 349.273 143.877 345.8 145.271C345.261 145.469 344.604 145.101 344.511 144.521L343.138 135.31C342.837 133.2 342.438 131.157 342.244 129.024C342.214 128.595 342.308 128.163 342.517 127.786L346.735 120.335C346.911 120.065 346.926 120.046 347.268 120.05Z" fill="#DCD6E3"/>
<path d="M317.09 82.9798C317.731 83.3637 317.432 83.7017 317.432 83.7017L317.319 83.8906L198.279 215.386C208.504 233.758 218.728 252.131 228.954 270.503L269.066 253.855C266.563 236.113 264.059 218.372 261.554 200.63L261.628 200.262C274.085 179.305 286.543 158.348 299.001 137.39L308.201 121.92L309.631 119.515L311.615 116.237L326.129 92.2818C326.129 92.2818 326.202 91.8362 326.905 92.0914L327.161 92.4395L327.095 92.8667L312.581 116.822L310.602 120.092L309.135 122.554L299.971 137.967C287.547 158.868 275.124 179.768 262.7 200.668L266.141 225.051L270.246 254.13L270.104 254.589L269.903 254.73L228.922 271.739C228.922 271.739 228.668 272.045 228.212 271.492C221.108 258.729 214.005 245.966 206.902 233.203L197.097 215.584L197.025 215.306C197.063 215.104 197.064 215.102 197.171 214.927L316.482 83.1326C316.685 82.9813 316.564 82.9023 317.09 82.9798Z" fill="#DCD6E3"/>
<path d="M194.344 107.434C195.453 107.49 194.464 110.066 192.478 110.217C191.792 110.269 191.452 109.153 192.495 108.837C193.341 108.562 193.639 107.422 194.344 107.434Z" fill="#3B1B6A"/>
<path fill-rule="evenodd" clip-rule="evenodd" d="M320.548 182.847C320.548 193.828 318.509 204.329 314.788 213.997C313.829 216.485 312.763 218.914 311.588 221.285C305.462 233.633 296.493 244.313 285.525 252.461C281.389 255.536 276.97 258.247 272.308 260.56C264.626 264.37 256.308 267.063 247.554 268.458C247.536 268.458 247.527 268.462 247.519 268.462C245.815 268.726 244.09 268.95 242.36 269.12C241.755 269.174 241.15 269.232 240.54 269.278C239.312 269.367 238.084 269.434 236.838 269.475C236.399 269.497 235.964 269.506 235.525 269.51C234.973 269.528 234.422 269.533 233.866 269.533C227.126 269.533 220.568 268.762 214.267 267.305C212.886 266.987 211.515 266.633 210.157 266.247C206.316 265.158 202.578 263.81 198.97 262.219C168.479 248.786 147.189 218.304 147.189 182.847C147.189 164.032 153.182 146.624 163.374 132.411C163.836 131.757 164.311 131.111 164.795 130.471C165.808 129.139 166.856 127.835 167.945 126.562C168.676 125.715 169.416 124.877 170.182 124.057C170.231 123.999 170.281 123.936 170.339 123.882C170.59 123.613 170.845 123.335 171.105 123.071C171.289 122.865 171.486 122.667 171.683 122.466C171.858 122.282 172.033 122.103 172.221 121.923C172.45 121.681 172.687 121.439 172.934 121.206C173.171 120.969 173.4 120.74 173.642 120.516C173.839 120.314 174.041 120.122 174.238 119.942C174.422 119.763 174.61 119.593 174.798 119.413C175.09 119.136 175.386 118.862 175.686 118.602C175.87 118.432 176.049 118.266 176.233 118.11C176.416 117.943 176.591 117.782 176.771 117.63C177.075 117.365 177.376 117.105 177.676 116.845C177.748 116.783 177.815 116.724 177.887 116.666C178.254 116.353 178.631 116.039 179.003 115.739C179.366 115.438 179.738 115.142 180.11 114.851C180.222 114.757 180.329 114.672 180.446 114.577C180.845 114.268 181.257 113.955 181.665 113.637C182.117 113.3 182.57 112.964 183.027 112.632C183.489 112.301 183.946 111.974 184.412 111.655C184.869 111.332 185.331 111.014 185.797 110.705C185.82 110.692 185.833 110.678 185.855 110.669C186.263 110.396 186.68 110.127 187.088 109.862C187.155 109.813 187.227 109.777 187.285 109.728C187.707 109.464 188.137 109.199 188.563 108.931C189.141 108.576 189.728 108.226 190.315 107.886C190.745 107.635 191.176 107.384 191.61 107.142C204.115 100.15 218.529 96.1659 233.866 96.1659C240.141 96.1659 246.268 96.8292 252.157 98.1061C254.174 98.5319 256.15 99.0339 258.114 99.6036C258.293 99.6574 258.477 99.7062 258.661 99.7645C282.944 106.999 302.768 124.586 313.005 147.412C313.843 149.29 314.623 151.2 315.33 153.149V153.154C315.335 153.149 315.335 153.154 315.335 153.154C315.649 154.023 315.954 154.898 316.241 155.776C316.433 156.363 316.622 156.954 316.801 157.546C316.985 158.142 317.155 158.738 317.325 159.335C318.249 162.624 318.988 165.995 319.517 169.432C319.71 170.679 319.88 171.938 320.019 173.206C320.369 176.37 320.548 179.584 320.548 182.847Z" fill="#5DBBFF"/>
<path fill-rule="evenodd" clip-rule="evenodd" d="M297.941 122.81C281.673 105.458 258.121 95.1646 234.164 95.0458C233.822 95.0454 233.481 95.0458 233.139 95.0485C217.21 95.1933 201.392 99.7868 187.972 107.978L186.63 108.816L185.19 109.763C184.775 110.057 184.354 110.346 183.933 110.635C183.351 111.035 182.767 111.435 182.195 111.852C182.195 111.852 181.508 112.357 180.986 112.744C180.986 112.744 180.279 113.29 179.751 113.698C179.751 113.698 179.621 113.8 179.406 113.979C177.203 115.705 175.102 117.536 173.083 119.491C172.484 120.079 171.371 121.186 171.371 121.186C170.636 121.905 169.944 122.592 169.341 123.316C166.864 125.975 164.569 128.8 162.461 131.762C158.365 137.514 154.956 143.678 152.342 150.198C142.031 175.91 144.805 205.996 159.333 229.272C174.878 254.178 202.986 270.011 231.951 270.633C233.657 270.669 235.872 270.626 235.872 270.626C237.712 270.592 239.513 270.492 241.32 270.339C243.752 270.125 245.69 269.92 248.767 269.392C272.033 265.403 293.443 251.535 306.691 231.916C321.382 210.159 325.372 182.336 318.01 157.672C317.31 155.327 316.316 152.582 316.316 152.582C312.265 141.549 305.975 131.38 297.941 122.81ZM191.838 108.299C204.555 101.074 219.126 97.3307 233.689 97.2863C240.706 97.2796 247.586 98.1012 254.331 99.7505C281.558 106.409 304.432 126.715 314.21 153.347V155.455L314.796 154.995L314.905 155.314C321.375 174.433 320.833 195.183 313.742 213.594C303.399 240.452 279.34 260.718 251.595 266.571C249.656 266.98 247.355 267.353 247.355 267.353C243.441 267.954 239.465 268.347 235.502 268.39C228.126 268.608 220.687 267.726 213.499 265.971C187.991 259.744 166.007 241.135 155.505 217.244C142.389 187.408 147.968 151.521 168.795 127.292C169.785 126.141 171.092 124.715 171.092 124.715C171.766 123.927 172.591 123.114 173.399 122.317C173.444 122.272 173.489 122.228 173.534 122.183C173.625 122.096 173.68 122.039 173.737 121.981C173.855 121.861 173.979 121.734 174.423 121.319C174.675 121.063 174.938 120.818 175.2 120.573C175.299 120.481 175.398 120.388 175.497 120.295C175.562 120.233 175.617 120.181 175.669 120.131C175.848 119.96 175.99 119.823 176.434 119.436C177.145 118.779 177.863 118.151 178.606 117.525C178.794 117.366 178.974 117.214 179.146 117.069C181.822 114.809 182.637 114.121 186.397 111.655C187.222 111.113 188.195 110.48 188.195 110.48C189.396 109.734 190.609 108.998 191.838 108.299Z" fill="#3B1B6A"/>
<path d="M319.378 182.584C319.378 196.191 316.201 209.056 310.546 220.472C304.511 232.644 295.666 243.172 284.856 251.204C280.782 254.234 276.421 256.908 271.826 259.187C264.254 262.938 256.054 265.598 247.426 266.971C247.409 266.971 247.4 266.976 247.391 266.976C245.712 267.237 244.015 267.453 242.306 267.625C241.709 267.678 241.113 267.731 240.512 267.775C239.306 267.864 238.091 267.935 236.863 267.975C236.434 267.996 236.002 268.005 235.573 268.01C235.025 268.023 234.481 268.028 233.938 268.028C230.218 268.028 226.551 267.789 222.955 267.329C223.583 267.25 224.21 267.157 224.833 267.06C224.841 267.06 224.85 267.056 224.864 267.056C233.497 265.681 241.696 263.022 249.268 259.271C253.863 256.991 258.219 254.319 262.297 251.288C273.103 243.256 281.948 232.728 287.988 220.556C293.638 209.14 296.819 196.275 296.819 182.668C296.819 172.387 295.008 162.526 291.681 153.398C291.681 153.398 291.681 153.394 291.677 153.394C290.974 151.472 290.21 149.591 289.384 147.739C279.289 125.239 259.753 107.902 235.816 100.772C235.635 100.714 235.453 100.666 235.272 100.612C233.342 100.052 231.393 99.5569 229.405 99.137C227.082 98.6332 224.722 98.2271 222.332 97.9219C226.127 97.4051 230.002 97.1403 233.938 97.1403C240.123 97.1403 246.158 97.7942 251.968 99.0532C253.951 99.4727 255.904 99.9675 257.835 100.529C258.012 100.582 258.197 100.63 258.374 100.683C282.311 107.814 301.851 125.15 311.942 147.651C312.768 149.506 313.537 151.384 314.235 153.306C314.239 153.306 314.239 153.31 314.239 153.31C317.566 162.442 319.378 172.303 319.378 182.584Z" fill="black" fill-opacity="0.25" style="mix-blend-mode:overlay"/>
<path fill-rule="evenodd" clip-rule="evenodd" d="M249.754 225.794C252.75 227.004 255.113 228.452 254.746 231.318C254.43 233.82 251.963 240.129 254.39 241.671C256.243 242.857 254.281 248.329 250.969 250.9C242.051 257.82 252.076 261.253 242.359 269.12C241.755 269.175 241.148 269.23 240.54 269.276C239.314 269.366 238.084 269.436 236.838 269.477C236.401 269.497 235.963 269.507 235.527 269.512C234.974 269.527 234.421 269.532 233.869 269.532C227.128 269.532 220.567 268.763 214.267 267.307C212.886 266.985 211.515 266.633 210.158 266.247C206.265 261.133 203.472 254.808 204.813 250.9C206.41 246.233 206.843 243.179 203.562 240.727C200.277 238.271 194.661 236.518 195.439 229.068C196.218 221.623 190.356 222.17 189.084 220.081C188.436 219.011 186.874 216.082 184.759 214.902C182.358 213.56 180.293 213.43 178.535 211.315C177.948 210.611 177.169 210.019 176.164 209.833C173.19 209.28 173.411 206.748 171.101 203.333C168.785 199.916 168.785 196.832 168.785 196.832C167.795 192.673 161.023 189.136 161.023 189.136C160.375 188.599 159.441 188.438 158.627 188.864C157.718 189.337 156.603 189.468 155.598 188.312C153.237 185.584 153.91 184.474 154.694 182.851C155.256 181.696 155.869 180.571 156.527 179.471C157.582 177.728 158.698 174.663 156.552 171.383C153.247 166.314 161.184 157.589 161.184 157.589C168.011 151.535 169.553 148.903 165.148 144.497C160.742 140.092 169.483 130.763 169.483 130.763C169.623 130.201 169.558 129.598 169.342 128.97C168.765 127.277 169.036 125.413 170.181 124.057C170.227 124.003 170.272 123.948 170.321 123.897C170.582 123.618 170.84 123.337 171.11 123.067C171.295 122.863 171.489 122.664 171.683 122.464C171.859 122.284 172.035 122.103 172.221 121.922C172.452 121.681 172.688 121.439 172.934 121.208C173.17 120.967 173.401 120.741 173.642 120.515C173.838 120.314 174.039 120.123 174.24 119.943C174.421 119.762 174.612 119.591 174.798 119.415C175.089 119.134 175.385 118.863 175.687 118.601C175.868 118.431 176.049 118.265 176.234 118.109C176.415 117.943 176.591 117.782 176.772 117.632C177.073 117.366 177.375 117.104 177.676 116.843C177.746 116.783 177.817 116.722 177.887 116.667C178.254 116.351 178.631 116.039 179.002 115.738C179.364 115.437 179.736 115.14 180.108 114.849C180.223 114.758 180.328 114.673 180.444 114.577C180.846 114.266 181.258 113.954 181.665 113.638C182.117 113.301 182.569 112.965 183.026 112.633C183.488 112.302 183.945 111.975 184.412 111.654C184.87 111.332 185.332 111.016 185.799 110.705C185.864 110.656 185.876 110.659 186.179 110.547C186.491 110.431 186.744 110.207 186.969 109.962C187.056 109.867 187.185 109.805 187.286 109.73C187.708 109.463 188.135 109.197 188.562 108.931C189.14 108.574 189.727 108.228 190.315 107.886C190.747 107.635 191.174 107.384 191.611 107.143C192.269 107.67 193.003 108.378 193.189 109.052C193.54 110.343 188.959 111.282 190.486 112.452C192.013 113.628 192.988 113.512 193.204 114.568C193.42 115.622 194.359 114.452 194.59 113.271C194.831 112.101 195.65 109.755 198.699 109.524C201.749 109.288 202.221 107.058 203.512 108.348C204.798 109.64 207.732 109.052 208.791 109.172C209.846 109.288 211.138 108.996 211.841 110.664C212.544 112.337 214.423 111.985 213.599 113.98C212.78 115.974 212.368 116.09 213.805 116.793C215.242 117.501 214.865 118.481 215.829 119.732C218.276 122.891 216.568 125.253 214.288 124.152C212.007 123.047 213.263 122.901 209.585 124.228C207.008 125.157 205.802 122.786 205.32 121.294C204.923 120.084 203.13 120.335 203.07 121.606C203.014 122.866 202.849 123.218 202.166 123.861C201.196 124.775 199.94 126.694 197.78 124.886C197.047 124.268 195.916 124.408 195.429 125.237C195.037 125.901 194.711 126.795 194.711 127.93C194.711 130.763 192.129 129.703 190.722 131.813C189.311 133.928 187.748 137.213 190.174 138.032C192.601 138.856 195.298 139.675 196.118 141.905C196.735 143.578 199.779 145.618 201.859 146.09C204.07 146.592 206.014 147.903 207.455 149.656C208.239 150.606 209.163 151.806 210.248 153.314C215.533 160.658 209.495 160.562 209.495 160.562C209.495 160.562 202.608 161.1 202.904 166.973C203.196 172.85 204.516 175.789 199.965 180.34C195.414 184.896 191.566 177.874 191.295 182.847C191.139 185.836 189.919 187.443 188.853 188.287C188.034 188.93 187.301 189.664 186.613 190.447C185.362 191.853 182.323 192.622 179.926 192.713C179.926 192.713 174.21 197.942 176.024 202.177C177.842 206.417 176.129 206.758 178.791 206.633C181.454 206.512 185.312 206.819 190.436 212.57C195.56 218.317 204.592 206.989 214.066 212.57C223.541 218.146 222.822 217.072 225.495 219.79C228.167 222.502 235.722 217.062 240.51 221.286C240.67 221.422 240.816 221.558 240.967 221.694" fill="#00D3AE"/>
<path d="M202.887 106.834C204.084 106.951 204.802 108.062 206.441 108.082C208.895 108.113 211.662 107.753 212.76 109.982C213.333 111.145 214.862 111.602 214.922 113.029C214.96 113.949 214.458 114.803 214.089 115.658C214.089 115.658 215.521 116.391 216.049 117.679C216.514 118.813 217.321 119.757 217.747 120.779C218.405 122.354 218.216 124.618 216.46 125.339C215.111 125.894 213.625 125.037 212.42 124.412C212.42 124.412 210.649 125.15 209.435 125.441C208.484 125.668 207.454 125.548 206.61 125.036C205.391 124.296 204.771 122.882 204.249 121.628C204.103 121.613 204.184 121.74 204.175 121.9C204.07 123.484 203.119 124.803 201.538 126.003C200.256 126.976 198.469 126.775 197.023 125.716C196.368 125.263 195.882 127.095 195.821 128.252C195.745 129.359 195.156 130.399 194.188 130.93C193.053 131.554 191.946 131.859 191.098 133.325C190.39 134.55 189.293 136.506 190.5 136.959C193.033 137.846 195.819 138.611 197.003 141.123C197.972 143.179 200.055 144.518 202.223 145.024C202.737 145.15 202.78 145.171 203.022 145.25C206.836 146.496 209.41 150.077 211.527 153.187C213.016 155.375 214.635 158.143 212.786 160.329C211.345 162.032 208.475 161.666 206.806 162.46C204.997 163.32 203.921 165.267 204.052 167.447C204.287 171.205 204.988 175.206 202.898 178.518C201.17 181.256 198.291 183.556 195.248 182.959C194.303 182.774 193.402 182.322 192.536 182.118C192.536 182.118 192.325 186.699 189.851 188.91C188.286 190.309 186.889 192.077 184.766 192.889C183.393 193.414 181.931 193.695 180.461 193.805L180.404 193.809C178.075 196.156 176.039 199.269 177.182 202.045C177.627 203.144 177.944 204.285 178.127 205.471C178.127 205.471 181.175 205.331 183.518 206.14C186.707 207.24 189.16 209.63 191.419 211.983C193.001 213.582 195.676 213.066 197.513 212.499C203.05 210.793 208.84 208.309 214.513 211.535C218.55 213.885 223.032 215.702 226.168 218.877C227.183 219.905 228.998 219.414 230.456 219.151C234.023 218.508 237.82 217.729 240.919 220.169C241.116 220.325 241.305 220.489 241.491 220.657C241.785 220.923 241.988 221.248 242.085 221.638L242.021 222.071C241.798 222.443 241.794 222.448 241.445 222.706L241.021 222.813L240.589 222.748C240.589 222.748 239.372 221.637 238.244 221.185C233.55 219.301 227.977 223.725 224.742 220.622C221.548 217.44 217.328 215.766 213.395 213.477C212.873 213.18 212.787 213.146 212.492 213.011C207.318 210.646 200.902 214.086 196.612 215.066C194.108 215.638 191.354 215.253 189.367 213.059C188.74 212.374 188.083 211.711 187.385 211.094C184.962 208.957 181.867 207.645 178.48 207.767C177.483 207.796 177.192 208.042 176.427 207.192C175.462 206.118 175.721 204.411 174.941 202.493C173.386 198.527 176.804 194.112 179.144 191.909C179.144 191.909 179.513 191.623 180.303 191.57C182.518 191.404 184.858 190.714 186.043 189.403C186.967 188.389 188.176 187.595 188.925 186.63C189.863 185.423 190.059 183.813 190.21 182.346C190.336 181.21 190.936 179.83 192.398 179.851C193.994 179.875 195.504 181.096 197.084 180.782C198.067 180.586 198.859 179.893 199.558 179.15C200.662 177.976 201.615 176.595 201.975 175.035C202.991 170.62 200.227 165.716 203.404 162.203C205.011 160.426 207.515 159.645 209.753 159.426C210.272 159.368 210.836 159.229 211.121 158.822C211.874 157.749 210.914 156.514 210.395 155.599C208.255 151.821 205.51 148.166 201.432 147.139C198.681 146.421 196.014 144.603 195.022 142.183C193.752 139.21 188.813 139.997 187.94 137.267C187.187 134.917 188.855 132.388 189.968 130.941C190.755 129.918 192.181 129.593 193.23 128.894C193.79 128.52 193.539 127.6 193.695 126.736C193.794 126.188 193.965 125.654 194.205 125.152C194.952 123.588 196.962 122.825 198.615 124.12C199.437 124.747 200.292 124.154 201.546 122.899C202.222 122.207 201.613 120.835 202.777 119.897C203.969 118.937 205.892 119.532 206.449 121.137C206.472 121.202 206.496 121.266 206.52 121.331C206.582 121.487 206.646 121.641 206.719 121.793C206.771 121.902 206.827 122.01 206.887 122.115C206.934 122.198 206.983 122.278 207.035 122.358C207.53 123.108 208.468 123.442 209.53 123.055C210.885 122.557 212.265 121.764 213.606 122.506C214.6 123.067 216.063 124.085 215.894 122.436C215.816 121.666 215.362 120.972 214.885 120.342C214.885 120.342 214.176 118.543 213.703 118.064C212.871 117.221 211.452 116.944 211.785 115.477C211.967 114.675 212.575 113.969 212.68 113.165C212.68 113.165 211.348 112.061 210.704 110.886C210.047 109.723 207.952 110.304 206.823 110.323C206.616 110.325 206.41 110.325 206.203 110.319C206.06 110.315 205.916 110.308 205.773 110.298C204.67 110.222 203.53 109.938 202.702 109.125C202.702 109.125 200.475 110.414 198.502 110.671C196.993 110.886 196.072 112.039 195.621 113.782C195.53 114.109 195.41 114.428 195.254 114.73C195.211 114.812 195.166 114.893 195.118 114.973C194.525 115.959 192.564 116.843 192.114 114.835C191.883 113.802 187.848 113.954 189.232 111.23C189.773 110.163 191.075 109.792 191.948 109.129L191.472 108.509C190.273 109.203 189.087 109.92 187.914 110.658C187.914 110.658 187.097 111.405 186.384 111.664C186.384 111.664 182.371 114.479 180.387 116.055C179.835 116.497 179.285 116.945 178.752 117.401C177.85 118.171 178.275 117.768 177.123 118.814C177.123 118.814 175.839 119.965 175.151 120.618C174.902 120.859 174.887 120.868 174.781 120.966C173.835 121.864 172.93 122.763 172.068 123.68C172.068 123.68 169.521 125.875 170.449 128.751C170.914 130.262 170.795 130.088 170.572 131.022C170.572 131.022 169.328 132.589 168.334 133.937C166.85 135.952 165.413 138.12 165.076 140.641C164.92 141.811 165.251 143 166.153 143.923C167.762 145.595 169.133 147.693 168.64 150.06C167.906 153.585 164.739 155.913 162.246 158.143C162.246 158.143 161.021 159.486 160.209 160.622C157.882 163.872 155.685 167.912 157.6 170.943C157.877 171.392 157.91 171.468 158.038 171.724C159.419 174.5 158.768 177.836 157.131 180.652C155.829 182.92 154.278 184.966 156.248 187.347C156.757 187.962 157.284 188.225 158.34 187.761C159.388 187.324 160.631 187.469 161.551 188.129C161.649 188.199 161.845 188.308 162.026 188.411C165.46 190.383 168.988 192.933 169.873 196.567C169.873 196.567 169.983 197.932 170.275 198.966C171.065 201.767 172.841 204.046 174.217 206.829C174.683 207.753 175.348 208.52 176.491 208.755C178.273 209.147 179.374 210.928 180.777 211.808C182.448 212.855 184.489 213.217 186.112 214.456C187.815 215.757 188.895 217.718 190.052 219.515C191.123 221.121 194.564 221.359 195.923 224.244C197.411 227.403 195.595 231.239 197.508 234.412C199.911 238.4 205.957 239.164 206.986 243.84C207.745 247.284 205.407 250.656 205.611 253.698C205.891 257.853 208.199 261.722 210.785 265.217L210.825 265.271C218.839 267.512 227.21 268.552 235.505 268.391C236.167 268.379 236.829 268.358 237.49 268.332C238.929 268.272 240.369 268.174 241.804 268.045C241.804 268.045 245.336 265.486 245.816 262.293C246.143 260.116 245.482 257.869 246.007 255.752C247.162 251.089 253.292 249.393 253.956 243.836C254.089 242.719 253.318 242.351 252.925 241.782C251.466 239.662 252.331 236.87 252.852 234.644C253.266 232.875 254.043 230.986 253.437 229.682C252.689 228.069 250.836 227.444 249.331 226.832L248.966 226.591C248.722 226.231 248.72 226.226 248.633 225.801L248.715 225.371L248.956 225.007L249.317 224.761L249.746 224.673C249.746 224.673 251.745 225.379 252.837 226.041C254.815 227.241 256.291 229.334 255.749 232.114C255.258 234.63 254.222 237.16 254.482 239.554C254.581 240.477 255.394 240.95 255.724 241.457C256.866 243.215 256.052 245.568 255.086 247.491C253.237 251.166 248.75 252.961 248.102 256.671C247.716 258.882 248.421 261.207 247.876 263.417C247.227 266.043 245.275 268.18 243.181 269.895C242.633 270.343 241.971 270.281 241.317 270.338C230.898 271.206 220.318 270.235 210.366 267.47C209.617 267.261 209.091 266.709 208.619 266.051C205.176 261.262 202.133 255.361 203.895 250.113C204.904 247.063 205.772 243.656 202.6 241.414C199.036 238.894 194.927 236.572 194.334 231.89C194.246 231.19 194.226 230.483 194.26 229.778C194.353 227.852 194.589 225.786 193.316 224.303C191.893 222.646 189.195 222.467 187.987 220.429C187.879 220.246 187.771 220.063 187.663 219.88C186.296 217.6 184.66 215.976 181.464 214.644C179.936 214.001 178.613 213.001 177.468 211.803C176.651 210.962 175.217 211.495 173.405 209.626C171.759 207.928 171.184 205.594 169.838 203.447C168.626 201.486 167.766 199.261 167.667 196.988C166.816 193.783 163.352 191.682 160.566 190.162C160.566 190.162 159.795 189.561 158.919 189.968C155.814 191.359 151.932 187.054 153.088 183.71C154.553 179.468 158.276 176.145 155.566 171.922C155.363 171.595 155.353 171.562 155.27 171.395C155.158 171.168 155.06 170.934 154.977 170.694C153.815 167.326 155.553 163.781 157.2 161.1C158.119 159.605 159.159 158.182 160.325 156.867C160.325 156.867 165.058 152.406 165.901 150.948C166.942 149.144 166.022 147.103 164.167 145.093C161.927 142.583 163.078 138.405 164.45 135.856C165.496 133.912 166.814 132.112 168.271 130.435C168.271 130.435 168.464 129.882 168.249 129.236C168.249 129.236 167.633 127.171 168.215 125.344C168.582 124.193 169.357 123.249 170.263 122.329C170.263 122.329 171.325 121.191 172.117 120.438C172.117 120.438 172.659 119.872 173.409 119.183C173.409 119.183 175.593 117.172 176.259 116.59C177.324 115.658 178.445 114.745 179.572 113.843L180.987 112.746C182.369 111.716 183.793 110.738 185.196 109.758L186.197 109.147C186.374 108.981 186.657 108.801 186.657 108.801C188.051 107.924 189.452 107.073 190.899 106.256C191.175 106.103 191.184 106.125 191.485 106.029C191.485 106.029 192.444 106.376 192.448 106.379C192.542 106.457 192.635 106.537 192.727 106.618C192.87 106.745 193.01 106.876 193.146 107.012C193.977 107.852 194.683 109.049 194.077 110.086C193.578 110.941 192.553 111.389 191.691 111.929C192.29 112.31 192.974 112.553 193.504 112.987C194.002 110.623 195.929 108.672 198.446 108.421C199.652 108.301 200.471 107.69 201.767 107.067C202.118 106.899 202.352 106.801 202.887 106.834Z" fill="#3B1B6A"/>
<path fill-rule="evenodd" clip-rule="evenodd" d="M232.481 124.79C232.557 127.832 233.033 128.937 234.559 130.169C236.084 131.401 236.72 131.933 237.718 132.519C237.727 132.525 240.007 133.805 240.017 133.81C240.984 134.354 243.643 131.277 243.593 130.169C243.456 127.09 242.368 125.455 242.572 124.438C242.806 123.265 245.036 124.438 244.449 122.796C243.862 121.153 245.27 120.331 246.209 118.337C247.148 116.342 246.263 115.44 244.332 114.464C239.267 111.908 242.712 109.97 242.712 109.97C244.824 109.852 243.459 106.028 242.051 104.971C240.643 103.915 236.926 106.342 233.309 104.464C229.693 102.587 230.017 105.782 230.455 106.486C230.455 106.486 231.695 111.072 227.581 111.659C223.468 112.247 218.914 112.247 220.824 116.213C222.733 120.179 232.386 121.027 232.481 124.79Z" fill="#00D3AE"/>
<path fill-rule="evenodd" clip-rule="evenodd" d="M233.628 103.393C232.962 103.096 232.29 102.797 231.55 102.762C228.333 102.69 229.402 106.909 229.402 106.909C229.72 108.5 229.101 110.215 227.642 110.513C226.889 110.659 226.111 110.742 225.342 110.825C223.43 111.029 221.57 111.229 220.254 112.379C219.02 113.46 219.14 115.218 219.739 116.538C220.873 119.038 223.583 120.198 226.281 121.352C226.927 121.629 227.573 121.905 228.196 122.2C228.338 122.267 228.487 122.335 228.641 122.405C229.823 122.942 231.27 123.601 231.358 124.776C231.479 126.945 231.8 129.105 233.256 130.514C233.272 130.529 233.286 130.543 233.3 130.557C233.417 130.671 233.469 130.721 233.776 130.976C233.883 131.064 233.99 131.151 234.098 131.239C234.759 131.78 235.42 132.321 236.117 132.816C236.132 132.827 236.147 132.837 236.162 132.848C236.458 133.059 236.592 133.154 237.157 133.489L238.319 134.142C238.442 134.211 238.564 134.28 238.687 134.35C238.959 134.504 239.232 134.658 239.506 134.808C240.252 135.186 241.11 134.9 241.759 134.466C244.099 132.9 244.709 130.041 244.709 130.041C244.653 128.965 244.39 127.924 244.13 126.894C243.964 126.238 243.799 125.586 243.69 124.933C243.69 124.933 244.686 124.864 245.159 124.439C245.764 123.896 245.675 122.977 245.482 122.352C245.318 121.818 245.778 121.116 246.322 120.287C246.966 119.303 247.728 118.141 247.706 116.868C247.705 116.81 247.704 116.754 247.703 116.699C247.682 115.283 247.678 114.979 245.121 113.611C243.419 112.717 242.351 111.637 243.12 111.047C244.507 110.785 245.042 109.298 244.886 108.086C244.594 105.817 243.008 103.566 240.976 103.572C240.614 103.574 240.512 103.577 239.842 103.673C239.601 103.709 239.36 103.748 239.12 103.787C237.732 104.013 236.35 104.237 235.014 103.914C234.541 103.799 234.086 103.597 233.628 103.393ZM231.507 106.101C231.507 106.101 231.163 105.01 231.432 105.002C231.81 105.001 232.164 105.161 232.51 105.319C234.551 106.283 236.558 106.453 238.679 106.133C239.01 106.081 239.334 105.989 239.642 105.901C240.341 105.702 240.959 105.526 241.411 105.893C242.126 106.473 242.559 107.455 242.668 108.407C242.729 108.94 242.714 108.939 242.572 108.923C242.484 108.913 242.348 108.898 242.15 109C242.15 109 241.484 109.446 241.14 109.857C239.757 111.509 240.882 113.507 242.216 114.494C242.37 114.608 242.528 114.716 242.688 114.819C242.71 114.833 242.73 114.846 242.749 114.859C242.97 115.002 243.06 115.06 243.577 115.336C243.723 115.412 243.87 115.484 244.013 115.555C244.755 115.921 245.409 116.244 245.462 116.849C245.534 117.665 244.987 118.491 244.414 119.356C243.748 120.361 243.046 121.419 243.236 122.58C243.272 122.774 243.069 122.807 242.843 122.844C242.726 122.864 242.602 122.884 242.503 122.929C240.808 123.69 241.316 125.437 241.873 127.351C242.145 128.287 242.429 129.263 242.472 130.182L242.471 130.189C242.266 130.969 241.368 132.165 240.34 132.707L239.416 132.188L238.278 131.549C237.204 130.912 236.23 130.102 235.263 129.298C235.222 129.264 235.181 129.229 235.139 129.195C233.859 128.11 233.657 126.355 233.599 124.695C233.44 121.857 230.574 120.662 227.581 119.415C226.352 118.902 225.102 118.381 224.008 117.733C222.573 116.883 220.784 114.94 221.709 114.085C222.724 113.148 224.306 113.045 225.902 112.941C226.584 112.896 227.268 112.851 227.912 112.742C231.068 112.203 232.349 108.799 231.507 106.101Z" fill="#3B1B6A"/>
<path fill-rule="evenodd" clip-rule="evenodd" d="M253.184 121.355C251.533 120.637 251.784 118.188 253.54 117.789C253.945 117.697 254.386 117.653 254.85 117.69C257.048 117.864 257.964 112.362 262.542 117.677C267.12 122.992 264.007 126.838 259.978 125.922C255.949 125.006 257.231 122.077 254.484 121.71C253.987 121.644 253.556 121.518 253.184 121.355Z" fill="#00D3AE"/>
<path fill-rule="evenodd" clip-rule="evenodd" d="M265.094 119.428C264.057 117.388 262.023 114.296 259.091 114.236C257.812 114.23 256.935 115.001 256.041 115.788C255.859 115.948 255.677 116.109 255.49 116.264C255.014 116.658 254.371 116.738 253.729 116.817C253.048 116.901 252.368 116.985 251.888 117.444C249.952 119.289 251.58 122.263 253.901 122.748C255.052 122.978 255.397 123.544 255.827 124.25C255.85 124.287 255.874 124.326 255.897 124.364C257.494 126.966 261.454 128.062 264.002 126.354C266.293 124.819 266.222 121.645 265.094 119.428ZM257.308 117.44C257.885 116.942 258.403 116.493 259.034 116.477C260.641 116.46 264.487 119.799 263.616 123.26C263.317 124.45 262.02 125.005 260.889 124.928C259.021 124.801 258.272 123.722 257.502 122.611C257.358 122.404 257.214 122.196 257.061 121.993C256.225 120.878 254.716 120.611 254.716 120.611C251.861 120.206 253.412 118.817 254.48 118.798C255.75 118.788 256.576 118.073 257.308 117.44Z" fill="#3B1B6A"/>
<path fill-rule="evenodd" clip-rule="evenodd" d="M275.053 118.801C276.107 118.928 277.14 119.194 278.101 119.643C281.125 121.058 286.612 124.666 286.93 132.305C287.161 137.853 288.281 140.836 289.293 142.418C289.83 143.257 289.818 144.333 289.287 145.174C288.403 146.575 289.298 149.008 290.235 150.815C291.514 153.278 290.328 152.708 292.439 153.532C294.55 154.352 298.139 154.311 297.434 151.843C296.728 149.379 300.909 151.654 301.212 151.06C304.632 144.351 297.964 146.953 299.136 143.55C299.136 143.55 297.144 138.152 299.608 139.324C302.071 140.496 304.769 142.259 305.711 144.603C306.646 146.953 307.822 145.309 307.704 143.665C307.585 142.025 311.225 143.898 311.459 146.834C311.533 147.808 312.181 147.839 313.001 147.411C302.763 124.586 282.94 106.998 258.657 99.7617C258.49 99.8231 258.305 99.7617 258.11 99.603C256.154 99.0343 254.171 98.5318 252.161 98.1042C251.95 99.3211 251.879 100.515 251.734 100.956C251.734 100.956 249.617 104.393 252.408 106.303C255.199 108.213 260.795 103.659 264.387 111.298C267.174 117.224 272.711 118.518 275.053 118.801Z" fill="#00D3AE"/>
<path fill-rule="evenodd" clip-rule="evenodd" d="M313.404 145.604C302.927 123.269 282.559 105.76 258.979 98.6883C258.956 98.6832 258.934 98.6779 258.911 98.6726C258.889 98.6674 258.866 98.6621 258.843 98.6569L258.237 98.4732C256.309 97.9196 254.365 97.4298 252.395 97.0085C251.234 96.848 251.036 98.0335 251.036 98.0335C250.98 98.3798 250.941 98.7286 250.902 99.0755C250.847 99.5673 250.792 100.055 250.688 100.528C249.491 102.717 249.657 105.576 251.497 107.024C252.877 108.11 254.496 107.982 256.152 107.85C257.395 107.752 258.658 107.652 259.856 108.062C261.44 108.605 262.511 110.038 263.256 111.531C265.302 115.702 269.23 118.825 273.746 119.725C273.783 119.732 273.816 119.739 273.847 119.745C274.051 119.787 274.157 119.808 274.672 119.881C279.782 120.562 284.276 124.72 285.457 129.727C285.777 131.085 285.922 132.591 286.071 134.142C286.329 136.823 286.6 139.64 287.811 142.07C288.565 143.581 288.597 144.035 288.191 144.837C287.258 146.681 288.057 148.867 288.963 150.775C289.167 151.198 289.317 151.62 289.459 152.018C289.755 152.852 290.014 153.579 290.653 153.982C292.355 155.053 295.59 155.86 297.587 154.462C298.803 153.61 298.585 151.826 298.585 151.826C298.856 151.869 299.135 151.951 299.42 152.035C300.056 152.222 300.723 152.418 301.4 152.224C301.92 152.075 302.203 151.582 302.203 151.582C302.882 150.242 303.615 148.653 303.215 147.087C302.896 145.838 301.853 145.356 301.066 144.993C300.495 144.729 300.059 144.528 300.132 144.14C300.168 143.969 300.147 143.048 300.147 143.048C299.739 141.868 299.569 140.553 299.569 140.553C301.584 141.569 303.57 142.793 304.537 144.721C304.562 144.772 304.587 144.824 304.613 144.879C304.972 145.623 305.471 146.659 306.397 146.859C308.312 147.272 308.817 144.46 308.817 144.46C309.468 144.91 309.983 145.562 310.221 146.312L310.229 146.338C310.275 146.485 310.298 146.557 310.332 146.827C310.513 148.51 312.076 149.077 313.319 148.503C314.517 147.949 314.081 147.032 313.521 145.851C313.483 145.77 313.444 145.687 313.404 145.604ZM300.091 149.862C299.505 149.718 298.916 149.572 298.311 149.55C298.251 149.549 298.192 149.549 298.132 149.55C296.748 149.597 296.054 150.845 296.315 151.992C296.315 151.992 296.49 152.523 296.246 152.661C295.287 153.203 294.001 152.909 292.925 152.519C292.864 152.496 292.803 152.476 292.742 152.457C292.392 152.346 292.053 152.238 291.781 151.516L291.779 151.509C291.645 151.153 291.602 151.038 291.293 150.421C291.276 150.388 291.259 150.354 291.242 150.321C290.419 148.719 289.515 146.96 290.269 145.716C291.164 144.239 290.554 142.356 290.113 141.614C288.467 138.845 288.258 135.523 288.056 132.309C288.047 132.165 288.038 132.022 288.029 131.879C287.612 125.332 282.655 119.274 276.372 117.889C276.351 117.884 276.33 117.879 276.311 117.875C276.049 117.817 275.933 117.791 275.403 117.716C272.69 117.355 270.022 116.326 268.023 114.461C266.881 113.394 266.116 112.065 265.367 110.763C264.456 109.178 263.567 107.633 262.05 106.654C260.227 105.477 257.957 105.469 255.804 105.637C250.789 106.03 251.998 103.194 252.633 101.703C252.698 101.551 252.756 101.414 252.802 101.295C252.802 101.295 252.934 100.725 252.988 100.327C253.011 100.146 253.033 99.9649 253.056 99.784C253.069 99.6754 253.083 99.5668 253.096 99.4583L253.224 99.4874C254.453 99.7715 255.675 100.083 256.89 100.421C256.918 100.428 256.946 100.436 256.973 100.444C257.127 100.487 257.281 100.531 257.435 100.574C257.764 100.668 258.618 100.92 258.618 100.92C279.942 107.394 298.477 122.512 309.128 142.108C309.128 142.108 308.432 141.886 307.959 141.954C306.742 142.128 306.577 143.791 306.577 143.791C305.779 142.157 304.395 140.9 302.887 139.886C302.773 139.81 302.659 139.732 302.543 139.654C301.066 138.652 299.431 137.542 298.177 138.248C296.478 139.204 297.269 141.538 297.899 143.398C297.92 143.46 297.94 143.521 297.961 143.582C297.564 145.254 298.945 146.276 300.256 146.93C301.895 147.749 300.485 149.958 300.485 149.958C300.354 149.927 300.222 149.895 300.091 149.862Z" fill="#3B1B6A"/>
<path fill-rule="evenodd" clip-rule="evenodd" d="M320.547 182.847C320.547 193.828 318.507 204.329 314.787 213.997C314.518 213.217 313.077 212.618 313.103 211.878C313.224 208.293 307.534 210.963 306.009 212.718C304.68 214.246 306.437 216.767 300.203 216.197C297.693 215.969 284.162 214.494 285.386 207.937C285.986 204.692 284.973 201.523 280.841 199.919C272.594 196.71 269.215 187.79 272.45 180.754C272.45 180.754 274.92 176.657 281.984 175.591C289.047 174.519 282.293 169.051 292.382 171.328C295.349 172 298.088 169.365 298.433 166.34C298.567 165.183 298.733 163.826 298.787 162.324C298.903 158.922 300.772 156.906 302.892 157.587C311.659 160.388 312.999 153.875 312.999 153.875C313.824 150.42 315.276 153.046 315.329 153.149V153.154C315.647 154.023 315.948 154.898 316.24 155.776C316.432 156.363 316.62 156.954 316.8 157.546C316.979 158.138 317.154 158.734 317.324 159.335C318.247 162.624 318.987 165.995 319.516 169.432C319.713 170.679 319.879 171.938 320.017 173.206C320.367 176.37 320.547 179.584 320.547 182.847Z" fill="#00D3AE"/>
<path fill-rule="evenodd" clip-rule="evenodd" d="M314.733 151.076C314.641 151.031 314.562 150.994 314.183 150.977C312.593 150.971 312.195 152.515 311.953 153.452C311.912 153.612 311.875 153.755 311.838 153.869C311.083 156.17 308.66 157.265 306.459 157.155C305.801 157.123 305.118 156.942 304.429 156.759C303.274 156.453 302.098 156.142 300.978 156.511C298.052 157.475 297.801 160.627 297.54 163.911C297.475 164.719 297.411 165.534 297.305 166.327C297.017 168.306 295.042 170.644 292.784 170.266C292.7 170.251 292.613 170.235 292.522 170.218C290.288 169.802 286.065 169.015 284.999 171.811C284.974 171.879 284.95 171.946 284.926 172.015C284.429 173.486 283.48 174.159 282.241 174.409L282.24 174.41C282.172 174.423 282.103 174.436 282.035 174.448C278.996 174.965 276.039 175.945 273.66 177.862C272.474 178.818 271.392 180.375 271.392 180.375C268.286 187.314 271.443 195.794 277.729 199.628C278.473 200.082 279.27 200.433 280.066 200.784C280.385 200.925 280.703 201.065 281.018 201.212C283.687 202.457 284.677 205.295 284.252 207.919C283.871 210.545 285.562 212.674 287.581 213.923C291.043 216.064 295.23 216.786 299.303 217.233C299.458 217.25 299.615 217.268 299.775 217.287C301.598 217.497 303.685 217.738 305.231 216.554C305.996 215.969 306.266 215.056 306.529 214.167C306.54 214.131 306.551 214.096 306.561 214.06C307.158 212.056 311.698 210.282 311.959 211.483C311.977 211.566 311.983 211.65 311.985 211.734C311.998 213.01 313.09 214.105 314.104 214.885C315.153 215.69 315.772 214.579 316.181 213.478C319.889 203.509 321.738 192.859 321.665 182.228C321.594 171.905 319.312 161.946 316.374 152.743C316.374 152.743 315.745 151.486 314.804 151.108C314.777 151.097 314.755 151.086 314.733 151.076ZM308.636 159.244C311.368 158.708 313.185 156.626 314.259 153.549C314.268 153.524 314.336 153.699 314.336 153.699C320.81 171.595 321.204 192.966 314.372 211.9C314.372 211.9 314.284 211.818 314.226 211.752C314.226 211.752 314.201 211.11 314.065 210.703C313.249 208.261 310.678 208.827 308.842 209.567C306.987 210.315 305.03 211.457 304.431 213.365C303.844 215.283 302.619 215.219 301.127 215.141L301.087 215.139C297.306 214.94 293.438 214.273 290.019 212.688C288.501 211.985 286.212 210.518 286.452 208.374C286.913 204.789 285.624 201.143 282.539 199.47L282.523 199.461C282.191 199.281 282.053 199.206 281.457 198.959C274.715 196.234 270.854 188.832 272.984 182.448C273.014 182.358 273.042 182.267 273.069 182.177C273.167 181.86 273.263 181.545 273.443 181.284C275.085 178.891 277.976 177.593 280.809 176.951C280.847 176.943 280.88 176.935 280.912 176.928C281.144 176.874 281.255 176.849 281.841 176.748C282.948 176.568 284.049 176.344 284.987 175.768C285.969 175.163 286.328 174.21 286.63 173.41C286.869 172.776 287.072 172.238 287.521 172.046C288.667 171.557 290.019 171.897 291.324 172.224C291.627 172.3 291.927 172.376 292.222 172.44C295.06 173.011 297.686 171.2 298.862 168.794C299.645 167.191 299.7 166.007 299.753 164.875C299.766 164.597 299.779 164.322 299.803 164.044C299.831 163.715 299.846 163.384 299.862 163.055C299.899 162.266 299.936 161.482 300.143 160.731C300.392 159.825 301.238 158.294 302.488 158.635C304.479 159.218 306.602 159.643 308.636 159.244Z" fill="#3B1B6A"/>
<path fill-rule="evenodd" clip-rule="evenodd" d="M273.044 111.211C272.956 111.122 272.889 111.055 272.462 110.974C271.29 110.938 271.223 112.184 271.223 112.184C271.293 113.903 271.139 115.625 270.865 117.321C270.614 118.81 271.382 119.767 272.293 119.344C272.791 119.113 272.934 118.477 272.934 118.477C273.29 116.629 273.476 114.75 273.477 112.872C273.477 112.844 273.477 112.816 273.477 112.788C273.478 112.196 273.478 111.608 273.093 111.258C273.075 111.241 273.059 111.226 273.044 111.211ZM269.978 123.131C270.845 123.366 271.08 124.27 270.368 125.439C269.324 127.15 267.932 128.655 266.261 129.759C266.261 129.759 265.011 130.257 264.587 129.296C264.258 128.552 265.059 127.897 265.907 127.203C266.251 126.921 266.604 126.633 266.892 126.33C267.628 125.555 268.245 124.672 268.766 123.735C268.766 123.735 269.259 123.054 269.978 123.131ZM260.069 132.195C261.255 131.456 260.91 130.167 259.932 129.956C259.911 129.954 259.889 129.952 259.867 129.949C259.773 129.936 259.66 129.922 259.412 130.009C257.491 130.683 256.438 132.759 255.854 134.678C255.494 135.861 255.447 137.139 256.381 137.337C257.214 137.513 257.709 136.472 257.709 136.472C258.038 134.913 258.625 133.122 260.069 132.195ZM256.224 141.379C257.012 141.596 257.098 141.762 257.132 142.517C257.096 143.562 257.074 144.608 257.051 145.654V145.654V145.654V145.654L257.051 145.654L257.051 145.655L257.051 145.655C257.03 146.644 257.009 147.632 256.977 148.619C256.977 148.619 256.952 149.256 256.616 149.57C255.996 150.149 254.778 149.759 254.731 148.713C254.741 148.446 254.749 148.178 254.757 147.91L254.757 147.909C254.779 147.12 254.796 146.331 254.813 145.541L254.813 145.541C254.835 144.548 254.857 143.556 254.888 142.561C254.888 142.561 255.011 141.242 256.224 141.379ZM255.696 159.534C256.358 157.066 257.12 154.225 255.532 153.896C254.427 153.844 254.273 154.923 254.273 154.923C254.029 156.782 253.671 158.634 253.117 160.414C253.086 160.511 253.055 160.608 253.024 160.705C252.571 162.087 254.655 162.605 255.127 161.481C255.127 161.481 255.421 160.564 255.595 159.911L255.673 159.617L255.696 159.534ZM251.429 165.6C252.327 165.826 252.616 166.784 251.807 167.811C250.554 169.401 249.026 170.759 247.309 171.858C247.309 171.858 246.2 172.309 245.714 171.538C245.389 171.022 245.554 170.318 246.108 169.966C246.361 169.804 246.422 169.762 246.501 169.708L246.501 169.708L246.53 169.688L246.57 169.661C248.013 168.669 249.292 167.45 250.342 166.037C250.342 166.037 250.821 165.546 251.429 165.6ZM240.958 174.868C242.503 174.153 242.243 172.814 241.221 172.52C240.697 172.454 240.397 172.659 240.397 172.659C240.099 172.796 239.787 172.935 239.47 173.077C236.749 174.298 233.616 175.703 234.497 177.132C234.983 177.92 236.15 177.429 236.15 177.429C237.701 176.482 239.312 175.636 240.958 174.868ZM230.568 181.701C231.696 180.609 231.676 179.49 230.655 179.195C230.145 179.131 229.636 179.5 229.636 179.5C228.239 180.785 226.97 182.206 225.854 183.74C225.427 184.328 225.082 184.863 225.263 185.385C225.446 185.911 226.125 186.117 226.125 186.117C226.125 186.117 225.015 186.527 224.258 186.815C224.026 186.904 223.796 186.993 223.565 187.083C222.832 187.437 222.657 188.456 223.227 188.963C223.707 189.391 224.501 189.123 224.501 189.123C226.394 188.39 228.304 187.7 230.228 187.055C230.87 186.782 231.162 186.043 230.866 185.474C230.485 184.745 230.212 184.692 228.899 185.139C228.645 185.225 228.391 185.313 228.137 185.401C227.816 185.513 227.494 185.625 227.174 185.74L227.241 185.658C228.227 184.241 229.333 182.908 230.568 181.701ZM279.304 186.08C280.835 185.895 280.442 184.054 279.386 183.848C279.209 183.841 279.076 183.847 279.076 183.847C277.328 183.914 275.578 183.933 273.826 183.908C273.554 183.904 273.282 183.898 273.01 183.892C271.965 183.95 271.587 185.172 272.173 185.786C272.478 186.105 273.09 186.136 273.09 186.136C274.044 186.156 274.999 186.165 275.954 186.159C277.07 186.152 278.186 186.127 279.304 186.08ZM260.696 182.736C260.902 182.773 261.109 182.808 261.317 182.843C263.099 183.135 264.904 183.362 266.715 183.533C266.715 183.533 267.783 183.758 267.838 184.584C267.93 185.963 265.44 185.688 263.323 185.407C262.329 185.276 261.338 185.124 260.351 184.951C260.351 184.951 259.489 184.697 259.391 183.995C259.295 183.307 259.897 182.659 260.696 182.736ZM242.183 183.776C243.437 183.425 243.145 181.774 242.101 181.564C241.905 181.556 241.73 181.581 241.73 181.581C239.659 181.995 237.603 182.498 235.567 183.066C234.665 183.396 234.558 184.693 235.318 185.121C235.724 185.35 236.261 185.199 236.261 185.199C238.22 184.659 240.195 184.167 242.183 183.776ZM249.839 180.669C250.028 180.67 250.22 180.67 250.414 180.67C252.055 180.669 253.832 180.668 255.03 181.496C255.955 182.136 255.348 183.828 253.508 183.327C251.807 182.883 250.015 182.853 248.244 182.954C248.244 182.954 247.506 182.903 247.213 182.4C246.772 181.647 247.421 180.746 248.484 180.698C248.935 180.678 249.386 180.669 249.839 180.669Z" fill="#3B1B6A"/>
<path d="M286.235 85.0079C286.226 86.6474 285.934 88.2202 285.404 89.679C285.097 90.5266 284.709 91.336 284.25 92.098C283.858 92.747 283.477 93.4027 283.129 94.0759L274.485 110.782C273.584 112.523 271.095 112.523 270.194 110.782L261.549 94.0759C261.201 93.4027 260.82 92.747 260.429 92.098C259.969 91.336 259.582 90.5266 259.274 89.679C258.736 88.1991 258.443 86.6022 258.443 84.9367C258.443 77.2227 264.73 70.9767 272.459 71.0416C280.082 71.1057 286.273 77.3845 286.235 85.0079Z" fill="white"/>
<path fill-rule="evenodd" clip-rule="evenodd" d="M285.481 92.2078C291.093 82.0871 282.569 70.0382 272.469 69.9212C272.371 69.9207 272.274 69.9207 272.176 69.9216C262.61 70.0543 255.776 79.6471 257.681 88.2108C258.092 90.0552 259.002 91.7257 259.913 93.397C260.107 93.7543 260.302 94.1117 260.492 94.4708C261.706 96.8001 262.906 99.137 264.105 101.474C265.8 104.775 267.495 108.075 269.23 111.355C270.466 113.597 273.736 113.66 275.135 111.842C275.141 111.833 275.148 111.824 275.154 111.816C275.267 111.669 275.319 111.601 275.478 111.301C276.434 109.454 277.388 107.606 278.343 105.757C280.286 101.993 282.23 98.2282 284.187 94.4703L284.251 94.3507C284.467 93.9461 284.7 93.5507 284.933 93.1553C285.119 92.8409 285.304 92.5266 285.481 92.2078ZM259.951 81.8042C261.33 76.3291 266.66 72.2038 272.283 72.1617C275.527 72.1581 278.643 73.3943 280.981 75.5505C285.241 79.479 286.271 86.4045 283.369 91.3876C281.05 95.314 279.007 99.3883 276.964 103.462C275.818 105.747 274.672 108.032 273.478 110.29C273.016 111.126 271.68 111.124 271.214 110.312C269.741 107.644 268.383 104.911 267.026 102.18C265.342 98.7916 263.659 95.4048 261.759 92.1433C259.927 89.0216 259.072 85.2935 259.951 81.8042Z" fill="#3B1B6A"/>
<path fill-rule="evenodd" clip-rule="evenodd" d="M278.937 85.8708C278.937 89.5151 275.983 92.4696 272.339 92.4696C268.694 92.4696 265.74 89.5151 265.74 85.8708C265.74 82.2265 268.694 79.272 272.339 79.272C275.983 79.272 278.937 82.2265 278.937 85.8708Z" fill="#FF9490"/>
<path fill-rule="evenodd" clip-rule="evenodd" d="M279.983 86.9482C280.607 82.4994 276.807 78.2348 272.439 78.1519C272.389 78.1515 272.364 78.1512 272.339 78.1512C272.315 78.1512 272.29 78.1515 272.24 78.1519C269.361 78.2066 266.677 79.9201 265.424 82.4398C262.912 87.4924 267.234 93.5901 272.339 93.5901C276.036 93.5901 279.474 90.5858 279.983 86.9482ZM267.373 88.1836C265.729 84.6661 268.669 80.4616 272.269 80.393C272.339 80.3925 272.41 80.393 272.481 80.3943C277.583 80.5557 279.103 87.0568 276.07 89.8804C273.477 92.2944 268.816 91.2716 267.373 88.1836Z" fill="#3B1B6A"/>
<path d="M272.398 111.081C273.37 111.081 273.603 110.341 273.969 109.541L281.976 94.11C282.3 93.4848 282.722 92.6188 283.085 92.0156C283.512 91.3079 284.032 90.3707 284.317 89.5827C284.809 88.2269 285.211 86.7927 285.246 85.2697C285.408 78.2142 279.511 71.8207 271.967 72.0152C270.556 72.0515 269.171 72.3755 267.896 72.7847C274.708 73.1505 280.535 78.9838 280.501 85.8708C280.493 87.3938 280.08 89.0651 279.587 90.4209L271.073 109.905C270.994 110.087 271.027 110.301 271.166 110.442C271.214 110.493 271.259 110.54 271.301 110.588C271.579 110.902 271.978 111.081 272.398 111.081Z" fill="black" fill-opacity="0.25" style="mix-blend-mode:overlay"/>
<path d="M236.377 163.152C236.369 164.744 236.086 166.27 235.571 167.686C235.273 168.509 234.896 169.295 234.45 170.034C234.071 170.664 233.701 171.3 233.363 171.954L224.972 188.169C224.098 189.858 221.682 189.858 220.807 188.169L212.417 171.954C212.079 171.3 211.709 170.664 211.329 170.034C210.884 169.295 210.507 168.509 210.209 167.686C209.687 166.25 209.402 164.699 209.402 163.083C209.402 155.596 215.504 149.533 223.006 149.596C230.405 149.658 236.414 155.752 236.377 163.152Z" fill="white"/>
<path fill-rule="evenodd" clip-rule="evenodd" d="M235.674 170.157C241.136 160.313 232.841 148.59 223.016 148.476C222.921 148.475 222.826 148.475 222.731 148.476C213.515 148.604 206.806 157.857 208.614 166.191C209.01 168.021 209.912 169.68 210.813 171.337C210.997 171.675 211.181 172.013 211.361 172.353C212.556 174.645 213.737 176.944 214.918 179.244C216.546 182.416 218.175 185.589 219.842 188.741C221.054 190.939 224.202 191.007 225.591 189.266C225.599 189.256 225.606 189.247 225.614 189.237C225.725 189.098 225.777 189.033 225.938 188.741C227.59 185.614 229.206 182.468 230.821 179.322C232.015 176.996 233.209 174.671 234.419 172.353C234.419 172.353 235.168 171.068 235.674 170.157ZM212.066 169.07C207.41 160.676 214.499 150.778 222.835 150.716C222.916 150.716 222.996 150.716 223.076 150.717C226.098 150.772 229.049 151.962 231.256 153.996C235.367 157.788 236.37 164.453 233.604 169.263C231.39 173.061 229.39 177.027 227.388 180.996C226.261 183.232 225.133 185.468 223.966 187.676C223.53 188.466 222.266 188.463 221.826 187.697C220.17 184.694 218.616 181.645 217.06 178.591C215.437 175.406 213.811 172.217 212.066 169.07Z" fill="#3B1B6A"/>
<path fill-rule="evenodd" clip-rule="evenodd" d="M229.294 163.989C229.294 167.527 226.427 170.395 222.889 170.395C219.352 170.395 216.484 167.527 216.484 163.989C216.484 160.452 219.352 157.585 222.889 157.585C226.427 157.585 229.294 160.452 229.294 163.989Z" fill="#FFCE93"/>
<path fill-rule="evenodd" clip-rule="evenodd" d="M229.672 167.252C232.005 162.413 227.956 156.56 222.986 156.465C222.938 156.464 222.913 156.464 222.889 156.464C222.865 156.464 222.841 156.464 222.792 156.465C219.985 156.518 217.371 158.184 216.147 160.645C214.255 164.45 216.262 169.411 220.045 170.958C223.564 172.397 228.027 170.663 229.672 167.252ZM218.098 166.221C216.513 162.827 219.349 158.772 222.821 158.706C224.835 158.693 226.704 159.845 227.596 161.586C228.642 163.627 228.154 166.306 226.488 167.858C223.987 170.186 219.49 169.2 218.098 166.221Z" fill="#3B1B6A"/>
<path d="M222.948 188.459C223.891 188.459 224.117 187.741 224.472 186.964L232.245 171.987C232.559 171.38 232.968 170.539 233.321 169.954C233.735 169.267 234.239 168.357 234.516 167.592C234.994 166.276 235.385 164.884 235.418 163.406C235.576 156.557 229.852 150.352 222.529 150.54C221.159 150.576 219.815 150.89 218.578 151.287C225.189 151.642 230.846 157.305 230.813 163.989C230.805 165.468 230.404 167.09 229.926 168.406L221.662 187.318C221.585 187.494 221.617 187.703 221.752 187.839C221.799 187.888 221.842 187.935 221.883 187.981C222.153 188.285 222.54 188.459 222.948 188.459Z" fill="black" fill-opacity="0.25" style="mix-blend-mode:overlay"/>
<path d="M294.11 267.969C294.604 268.018 294.624 268.203 294.699 268.413C294.977 269.191 293.697 269.598 292.618 270.127C291.688 270.584 290.748 271.021 289.8 271.439C288.589 271.972 287.363 272.471 286.126 272.942C286.126 272.942 284.639 272.702 285.385 271.866C285.815 271.385 286.702 271.282 287.465 270.969C289.603 270.095 291.697 269.116 293.755 268.044C293.755 268.044 293.858 267.961 294.11 267.969Z" fill="#3B1B6A"/>
<path d="M319.425 246.482C319.892 246.583 320.132 247.139 319.857 247.55C314.166 255.116 307.04 261.635 298.938 266.641C298.938 266.641 298.624 266.788 298.378 266.709C297.901 266.554 297.768 265.819 298.231 265.497C306.131 260.616 313.172 254.201 318.782 246.742C318.782 246.742 318.994 246.437 319.425 246.482Z" fill="#3B1B6A"/>
<path d="M337.806 170.375C338.204 170.409 338.502 170.804 338.42 171.199C338.076 172.533 337.667 173.849 337.29 175.175C337.089 175.821 335.813 175.682 335.989 174.838C336.333 173.504 336.742 172.187 337.119 170.862C337.212 170.562 337.419 170.361 337.806 170.375Z" fill="#3B1B6A"/>
<path d="M346.771 180.382C347.388 180.439 347.676 181.515 346.866 181.71C345.6 181.952 344.323 182.135 343.052 182.348C342.381 182.444 341.96 181.229 342.799 181.027C344.131 180.773 345.5 180.324 346.771 180.382Z" fill="#3B1B6A"/>
<path d="M343.45 174.629C343.977 174.67 344.278 175.404 343.868 175.797C342.776 176.754 341.642 177.663 340.528 178.597C339.988 179.029 339.066 178.138 339.642 177.585C340.735 176.628 341.869 175.719 342.982 174.785C343.114 174.68 343.276 174.624 343.45 174.629Z" fill="#3B1B6A"/>
<circle cx="233.254" cy="182.9" r="140.061" stroke="#DCD6E3" stroke-opacity="0.5" stroke-width="1.35981" stroke-dasharray="4.08 4.08"/>
<path d="M304.856 49.1848C306.352 47.7735 308.542 47.1032 310.692 46.7294C313.532 46.2359 316.44 46.386 319.314 46.8729C319.379 46.8839 319.6 46.9117 319.698 47.0727C319.85 47.324 319.688 47.6863 319.306 47.6486C314.923 46.8987 310.164 46.7272 306.303 49.0718C304.43 50.2092 303.605 52.6015 303.162 54.9504C302.909 56.2934 302.817 57.6636 302.832 59.0301C302.832 59.0301 302.824 59.444 302.511 59.4938C301.986 59.5769 302.049 58.5741 302.086 57.7083C302.208 54.8097 302.805 51.8177 304.531 49.5659C304.634 49.4312 304.703 49.3341 304.856 49.1848Z" fill="#3B1B6A"/>
<path d="M302.333 61.1427C302.597 60.9183 302.941 61.1379 302.996 61.6524C303.07 62.3196 303.233 62.9879 303.271 63.6256C303.277 64.0107 302.605 64.2665 302.486 63.5582C302.366 62.824 302.102 62.0517 302.209 61.3696C302.223 61.2824 302.24 61.2294 302.333 61.1427Z" fill="#3B1B6A"/>
<path d="M334.788 93.6694C335.018 93.4896 335.07 93.5562 335.194 93.6118C335.422 93.7147 335.507 94.0156 335.307 94.2319L330.82 98.7194C330.67 98.8573 330.623 98.8331 330.541 98.8315C330.247 98.8255 330.051 98.4246 330.278 98.1778C331.781 96.6747 333.226 95.1108 334.788 93.6694Z" fill="#3B1B6A"/>
<path d="M346.561 68.7852C351.988 74.4763 354.934 80.4234 356.481 84.6306C356.605 84.9606 356.717 85.2801 356.823 85.5884C356.868 85.7243 356.913 85.8568 356.957 85.9875C357.459 87.5169 357.759 88.7235 357.922 89.478C358.038 90.0221 357.873 90.5866 357.477 90.9819L346.605 101.855C346.209 102.25 345.645 102.415 345.101 102.299C344.346 102.136 343.14 101.836 341.61 101.334C341.48 101.29 341.347 101.245 341.211 101.2C340.903 101.094 340.583 100.982 340.253 100.859C336.044 99.3094 330.099 96.3648 324.405 90.9348C321.135 87.8144 317.946 83.8776 315.221 78.9105C305.076 60.4274 310.575 54.9502 310.575 54.9502C310.575 54.9502 316.048 49.4552 334.533 59.5981C339.502 62.3249 343.441 65.5125 346.561 68.7852Z" fill="white"/>
<path fill-rule="evenodd" clip-rule="evenodd" d="M317.572 52.8878C314.783 52.6641 311.873 52.8524 310.139 54.4855C309.947 54.6725 309.845 54.834 309.721 55.0292L309.715 55.0383C308.456 57.024 308.313 59.6243 308.52 62.0554C309.051 68.274 311.875 74.3243 315.054 79.9175C321.035 90.4453 330.904 98.7823 342.383 102.246C342.45 102.266 342.517 102.287 342.584 102.307C344.238 102.808 345.978 103.336 347.032 102.331C350.702 98.7188 354.343 95.0774 357.956 91.4074C358.462 90.8769 358.685 90.1288 358.561 89.4154C358.298 88.0254 357.9 86.7858 357.463 85.4861C353.889 74.8653 346.44 66.0634 337.013 60.2971C331.131 56.6994 324.485 53.442 317.572 52.8878ZM309.843 62.4647C309.545 59.7851 309.583 57.0517 311.019 55.4111C311.028 55.4016 311.028 55.4016 311.037 55.3931C312.477 54.1327 314.703 54.039 316.696 54.1141C322.714 54.3407 328.45 57.0273 333.8 59.9245C344.974 65.9754 354.157 76.604 357.154 88.9796C357.296 89.5673 357.397 90.1324 357.05 90.5075C354.09 93.6107 351.029 96.6158 347.969 99.6203C347.36 100.218 346.751 100.816 346.143 101.414C345.708 101.83 345.071 101.66 344.44 101.492C344.369 101.473 344.298 101.454 344.228 101.436C332.616 98.468 322.844 90.4797 316.747 80.2871C313.473 74.8143 310.546 68.7902 309.843 62.4647Z" fill="#3B1B6A"/>
<path fill-rule="evenodd" clip-rule="evenodd" d="M340.254 100.859C339.766 103.854 339.271 105.695 338.854 106.828C338.44 107.938 337.196 108.53 336.139 108.111C326.564 104.311 324.7 93.3016 324.405 90.9355C330.098 96.3644 336.045 99.3082 340.254 100.859Z" fill="#FF9490"/>
<path fill-rule="evenodd" clip-rule="evenodd" d="M325.879 91.3809C325.182 90.6879 324.538 90.0467 323.999 90.4442C323.693 90.7272 323.78 91.0738 323.78 91.0738C324.707 98.2265 328.829 105.779 335.673 108.611C337.014 109.166 338.55 108.669 339.24 107.497C339.3 107.396 339.353 107.291 339.399 107.183C340.164 105.411 340.481 103.451 340.795 101.513C340.824 101.329 340.854 101.145 340.884 100.962C340.947 100.369 340.28 100.187 340.28 100.187C335.259 98.3021 330.604 95.5149 326.563 92.0307C326.331 91.8305 326.102 91.603 325.879 91.3809ZM326.326 96.1957C325.924 95.0588 325.602 93.893 325.353 92.7108L325.343 92.6602C328.674 95.5882 332.406 98.053 336.415 99.9405C337.773 100.58 339.534 101.299 339.534 101.299C339.243 102.986 338.917 104.673 338.37 106.285C338.033 107.275 337.11 107.82 336.214 107.453C331.308 105.444 328.024 101.009 326.326 96.1957Z" fill="#3B1B6A"/>
<path fill-rule="evenodd" clip-rule="evenodd" d="M363.733 80.5179C364.154 81.5723 363.561 82.8183 362.451 83.2307C361.318 83.6481 359.478 84.1424 356.482 84.6308C354.934 80.4237 351.99 74.4767 346.562 68.7853C348.941 69.0805 359.935 70.9508 363.733 80.5179Z" fill="#FF9490"/>
<path fill-rule="evenodd" clip-rule="evenodd" d="M346.897 68.1855C346.684 68.1566 346.392 68.1297 346.173 68.2797C345.745 68.6489 346.1 69.2249 346.1 69.2249C350.385 73.7364 353.739 79.0469 355.883 84.852C356.092 85.3287 356.726 85.2376 356.726 85.2376C358.682 84.9126 360.638 84.5456 362.5 83.8918C363.885 83.3988 364.775 81.9269 364.425 80.582C364.423 80.5732 364.42 80.565 364.418 80.5571C364.398 80.4775 364.387 80.4382 364.327 80.2834C361.364 72.8607 354.155 69.1978 346.897 68.1855ZM356.89 83.9021C354.922 78.7731 352.016 73.9967 348.387 69.8367C348.173 69.5924 348.342 69.7331 348.342 69.7331C354.373 71.0057 360.632 74.7168 363.053 80.5392C363.41 81.4045 363.034 82.3275 362.228 82.6327C360.517 83.2591 358.702 83.6072 356.895 83.9149L356.89 83.9021Z" fill="#3B1B6A"/>
<path fill-rule="evenodd" clip-rule="evenodd" d="M356.324 92.1359C368.556 96.211 362.028 109.291 362.028 109.291C361.549 108.893 360.549 108.877 355.525 108.879C348.647 108.881 347.657 100.803 347.657 100.803L356.324 92.1359Z" fill="#FFCE93"/>
<path fill-rule="evenodd" clip-rule="evenodd" d="M356.655 91.5733C356.389 91.4776 356.219 91.4166 355.916 91.6448C355.902 91.6582 355.887 91.6715 355.873 91.6846L347.206 100.351C346.974 100.605 347.028 100.911 347.028 100.911C347.366 103.329 348.435 105.846 350.309 107.559C351.696 108.826 353.508 109.473 355.353 109.516C355.438 109.517 355.438 109.517 355.524 109.517C355.766 109.517 356.007 109.517 356.249 109.516C357.383 109.515 358.517 109.513 359.648 109.542C359.812 109.546 359.975 109.545 360.134 109.544C360.706 109.542 361.234 109.54 361.591 109.761C362.119 110.1 362.606 109.562 362.606 109.562C364.183 106.313 365.04 102.184 363.94 98.4961C362.917 95.0633 360.027 92.7555 356.747 91.6057C356.715 91.5947 356.684 91.5838 356.655 91.5733ZM355.45 108.24C351.233 108.184 348.976 104.582 348.339 101.023C350.831 98.5312 353.323 96.039 355.815 93.5469L356.492 92.8699L356.528 92.8828C358.34 93.5454 360.066 94.5647 361.267 96.0676C364.158 99.6833 363.407 104.403 361.707 108.448C361.707 108.448 361.171 108.345 360.779 108.315C359.49 108.217 358.191 108.226 356.891 108.235C356.411 108.239 355.93 108.242 355.45 108.24Z" fill="#3B1B6A"/>
<path fill-rule="evenodd" clip-rule="evenodd" d="M353.781 94.6774C359.631 97.7436 356.191 103.187 356.191 103.187C355.979 103.011 355.898 102.673 353.426 102.108C350.379 101.41 350.3 98.1582 350.3 98.1582L353.781 94.6774Z" fill="#FFCE93"/>
<path d="M353.781 94.6774C359.631 97.7436 356.191 103.187 356.191 103.187C355.979 103.011 355.898 102.673 353.426 102.108C350.379 101.41 350.3 98.1582 350.3 98.1582L353.781 94.6774Z" fill="white" fill-opacity="0.3"/>
<path d="M353.781 94.6774C359.631 97.7436 356.191 103.187 356.191 103.187C355.979 103.011 355.898 102.673 353.426 102.108C350.379 101.41 350.3 98.1582 350.3 98.1582L353.781 94.6774Z" fill="white" fill-opacity="0.3"/>
<path fill-rule="evenodd" clip-rule="evenodd" d="M354.08 94.1131C353.843 93.9978 353.564 94.0312 353.362 94.1969L353.331 94.2261L349.85 97.7066C349.656 97.9146 349.664 98.1933 349.664 98.1933C349.749 99.9814 350.819 101.763 352.455 102.462C352.845 102.629 353.298 102.723 353.751 102.817C354.446 102.962 355.141 103.107 355.609 103.514C356.036 103.896 356.531 103.865 356.761 103.479C357.37 102.459 357.731 101.304 357.817 100.129C358.002 97.6317 356.402 95.3853 354.222 94.1889C354.187 94.1698 354.169 94.1603 354.151 94.1508C354.133 94.1413 354.116 94.1319 354.08 94.1131ZM353.799 101.539C352.172 101.157 351.161 99.8639 350.963 98.3982L353.892 95.4694L353.914 95.4825C354.497 95.8331 355.041 96.2491 355.484 96.7617C356.624 98.08 356.758 99.9774 356.227 101.567C356.138 101.834 355.941 102.222 355.941 102.222C355.366 101.941 354.742 101.775 354.119 101.617C354.013 101.591 353.906 101.565 353.799 101.539Z" fill="#3B1B6A"/>
<path fill-rule="evenodd" clip-rule="evenodd" d="M330.633 65.1551C333.354 67.8766 333.354 72.2892 330.633 75.0107C327.911 77.7322 323.499 77.7322 320.777 75.0107C318.056 72.289 318.056 67.8766 320.777 65.1551C323.499 62.4336 327.911 62.4334 330.633 65.1551Z" fill="#69EDFF"/>
<path fill-rule="evenodd" clip-rule="evenodd" d="M329.972 63.7828C327.058 61.8065 322.85 62.2287 320.362 64.6693C320.328 64.7038 320.293 64.7386 320.259 64.7734C318.29 66.8055 317.613 69.8796 318.497 72.5119C319.529 75.5863 322.673 77.7632 325.889 77.6865C328.843 77.6159 331.651 75.6702 332.756 72.9455C334.055 69.7386 332.827 65.7186 329.972 63.7828ZM320.419 73.5661C318.818 71.1389 319.186 67.6895 321.201 65.6354C321.24 65.5966 321.279 65.5582 321.318 65.5202C324.643 62.339 330.315 64.0766 331.681 67.9874C332.752 71.0511 331.058 74.7462 328.09 75.9488C325.401 77.0387 322.017 75.9867 320.419 73.5661Z" fill="#3B1B6A"/>
<path d="M322.056 64.9136L323.093 75.8403C322.442 75.5721 321.862 75.1054 321.862 75.1054L320.991 65.8658C320.991 65.8658 321.559 65.2439 322.056 64.9136Z" fill="white" fill-opacity="0.3"/>
<path d="M323.511 64.1482L324.656 76.3232C324.502 76.3054 324.07 76.1907 324.07 76.1907L322.96 64.3792C322.96 64.3792 323.194 64.2744 323.275 64.2397C323.356 64.2049 323.511 64.1482 323.511 64.1482Z" fill="white" fill-opacity="0.3"/>
<path d="M322.056 64.9136L323.093 75.8403C322.442 75.5721 321.862 75.1054 321.862 75.1054L320.991 65.8658C320.991 65.8658 321.559 65.2439 322.056 64.9136Z" fill="white" fill-opacity="0.3"/>
<path d="M323.511 64.1482L324.656 76.3232C324.502 76.3054 324.07 76.1907 324.07 76.1907L322.96 64.3792C322.96 64.3792 323.194 64.2744 323.275 64.2397C323.356 64.2049 323.511 64.1482 323.511 64.1482Z" fill="white" fill-opacity="0.3"/>
<path d="M356.958 85.9877C357.46 87.5172 357.76 88.7236 357.923 89.4782C358.039 90.0225 357.874 90.5868 357.478 90.9823L346.606 101.855C346.21 102.25 345.646 102.415 345.102 102.299C344.347 102.136 343.141 101.837 341.611 101.334L356.958 85.9877Z" fill="#D5D4EA"/>
<path fill-rule="evenodd" clip-rule="evenodd" d="M357.656 86.0757C357.448 85.4308 356.961 85.2042 356.559 85.4882L356.506 85.5364L341.159 100.883C340.979 101.085 340.92 101.38 341.039 101.618C341.156 101.853 341.456 101.955 341.556 101.988C341.717 102.04 341.879 102.094 342.042 102.147C343.918 102.768 345.89 103.419 347.03 102.331C350.7 98.7187 354.341 95.0771 357.954 91.4077C358.461 90.8768 358.683 90.1291 358.56 89.4159C358.34 88.2524 358.01 87.1858 357.656 86.0757ZM344.602 101.53C343.999 101.384 343.401 101.219 342.806 101.041L356.664 87.1834L356.685 87.2545C356.854 87.8259 357.012 88.4005 357.153 88.9797C357.295 89.5673 357.397 90.1313 357.048 90.5078C353.496 94.2325 349.855 97.8735 346.131 101.426C345.833 101.701 345.41 101.716 345.017 101.627C344.879 101.596 344.741 101.563 344.602 101.53Z" fill="#3B1B6A"/>
<path fill-rule="evenodd" clip-rule="evenodd" d="M344.889 82.8579C349.329 87.2979 352.574 93.3886 350.818 95.1437C349.063 96.8991 342.972 93.6545 338.532 89.2144C334.092 84.7744 332.864 80.8337 334.619 79.0785C336.375 77.323 340.449 78.4178 344.889 82.8579Z" fill="#FF9490"/>
<path fill-rule="evenodd" clip-rule="evenodd" d="M339.639 78.3035C338.059 77.6339 335.61 77.2318 334.192 78.6015C333.283 79.4998 333.084 80.862 333.298 82.0714C334.26 87.5171 340.365 93.2085 346.752 95.6773C347.968 96.1472 349.492 96.6358 350.762 95.9661C351.814 95.4114 352.027 94.1903 351.905 93.1565C351.89 93.0316 351.871 92.9069 351.849 92.7828C351.82 92.6211 351.784 92.4604 351.744 92.3009C350.446 87.1256 345.643 80.8475 339.639 78.3035ZM334.865 82.9588C334.49 81.9499 334.188 80.4409 335.054 79.5452C335.517 79.0769 336.176 78.9139 336.807 78.9197C341.932 78.9668 347.688 85.2248 350.142 91.4919C350.157 91.5305 350.172 91.5692 350.187 91.6081C350.625 92.7232 351.107 93.9509 350.366 94.6923C349.767 95.2909 348.298 94.9114 347.165 94.4683C342.571 92.6698 337.45 88.6375 335.128 83.5911C335.033 83.3835 334.944 83.1731 334.865 82.9588Z" fill="#3B1B6A"/>
<path d="M321.131 61.1127C321.245 61.0275 321.269 61.0269 321.335 60.9894C323.52 59.7684 326.185 59.507 328.565 60.2722C328.565 60.2722 328.799 60.3806 328.827 60.584C328.868 60.8788 328.571 61.0738 328.172 60.9513C325.979 60.2938 323.545 60.5808 321.565 61.7408C321.565 61.7408 321.268 61.8596 321.093 61.6728C320.917 61.4858 321.096 61.1435 321.131 61.1127Z" fill="#3B1B6A"/>
<path d="M354.465 87.5596L356.244 85.7804C356.244 85.7804 354.221 80.7008 353.634 79.8051C353.149 79.065 351.55 75.6209 348.215 71.6682C344.88 67.7156 342.95 66.218 342.95 66.218C337.886 61.9876 334.767 60.4743 334.767 60.4743C334.767 60.4743 331.509 58.5442 326.491 56.4908C321.473 54.4372 318.709 54.3291 317.299 54.165C315.888 54.0006 314.479 54.2054 314.479 54.2054C314.479 54.2054 321.998 55.5489 328.915 59.0691C335.832 62.5894 341.413 67.0719 344.355 70.6182C353.54 81.6901 354.465 87.5596 354.465 87.5596Z" fill="black" fill-opacity="0.25" style="mix-blend-mode:overlay"/>
<path d="M354.995 88.8212L356.631 87.1853L357.289 89.52C357.384 89.8964 357.273 90.2948 356.999 90.569L355.728 91.8405C355.728 91.8405 355.389 89.7243 354.995 88.8212Z" fill="black" fill-opacity="0.25" style="mix-blend-mode:overlay"/>
<path d="M354.995 88.8212L356.631 87.1853L357.289 89.52C357.384 89.8964 357.273 90.2948 356.999 90.569L355.728 91.8405C355.728 91.8405 355.389 89.7243 354.995 88.8212Z" fill="black" fill-opacity="0.25" style="mix-blend-mode:overlay"/>
<path d="M360.619 98.7302C361.084 98.3497 361.395 99.5194 361.465 100.546C361.517 101.305 361.498 102.066 361.428 102.823C361.428 102.823 361.39 103.033 361.237 103.12C360.946 103.288 360.647 103.015 360.689 102.475C360.772 101.347 360.726 100.207 360.494 99.0985C360.494 99.0985 360.446 98.8879 360.619 98.7302Z" fill="#3B1B6A"/>
<path d="M361.092 83.0223C361.451 82.9413 362.261 82.6633 362.69 82.3506C363.04 82.095 363.257 81.4128 363.234 81.181C363.211 80.9494 363.084 80.6599 362.858 80.0871C362.632 79.5141 361.451 77.4292 360.86 76.7925C360.27 76.1554 359.123 74.7309 357.479 73.596C355.835 72.4615 354.989 72.0793 353.229 71.2686C351.469 70.4579 348.331 69.7284 348.331 69.7284C348.331 69.7284 352.997 71.3381 356.495 74.4183C358.839 76.4831 361.044 79.2798 361.463 80.3353C362.361 82.5997 361.092 83.0223 361.092 83.0223Z" fill="black" fill-opacity="0.25" style="mix-blend-mode:overlay"/>
<path d="M350.482 94.5796C350.804 94.3214 351.142 93.1788 350.107 90.956C349.073 88.7335 348.069 87.3099 346.84 85.7735C345.611 84.2373 342.596 80.7537 339.59 79.4996C336.695 78.292 335.625 79.1059 335.625 79.1059C335.625 79.1059 338.652 80.037 341.071 82.1715C343.49 84.3059 347.203 88.4383 348.622 90.9049C350.041 93.3714 350.482 94.5796 350.482 94.5796Z" fill="black" fill-opacity="0.25" style="mix-blend-mode:overlay"/>
<path d="M325.414 92.6446C325.414 92.6446 327.825 94.917 330.221 96.4534C332.618 97.9896 334.492 99.0036 335.721 99.6182C336.95 100.233 339.532 101.277 339.532 101.277L339.147 103.24C339.147 103.24 332.034 101.462 325.414 92.6446Z" fill="black" fill-opacity="0.25" style="mix-blend-mode:overlay"/>
<path d="M338.828 81.0724C339.072 80.8624 339.409 81.0897 339.671 81.2555C340.244 81.6171 340.763 82.059 341.239 82.5401C341.239 82.5401 341.407 82.7771 341.312 82.975C341.001 83.6212 339.843 82.199 338.903 81.694C338.903 81.694 338.518 81.3663 338.828 81.0724Z" fill="#3B1B6A"/>
<path d="M89.7944 87.7126C90.1699 87.7126 90.4743 87.4082 90.4743 87.0327C90.4743 86.6572 90.1699 86.3528 89.7944 86.3528V87.7126ZM99.993 86.3528C99.6175 86.3528 99.3131 86.6572 99.3131 87.0327C99.3131 87.4082 99.6175 87.7126 99.993 87.7126V86.3528ZM120.39 123.068C120.766 123.068 121.07 122.763 121.07 122.388C121.07 122.012 120.766 121.708 120.39 121.708V123.068ZM131.949 121.708C131.573 121.708 131.269 122.012 131.269 122.388C131.269 122.763 131.573 123.068 131.949 123.068V121.708ZM66.6776 87.7126H89.7944V86.3528H66.6776V87.7126ZM99.993 87.7126H146.907V86.3528H99.993V87.7126ZM120.39 121.708H91.8341V123.068H120.39V121.708ZM91.8341 121.708H66.6776V123.068H91.8341V121.708ZM146.907 121.708H131.949V123.068H146.907V121.708ZM48.3201 104.71C48.3201 114.849 56.539 123.068 66.6776 123.068V121.708C57.29 121.708 49.6799 114.098 49.6799 104.71H48.3201ZM163.904 104.71C163.904 114.098 156.294 121.708 146.907 121.708V123.068C157.045 123.068 165.264 114.849 165.264 104.71H163.904ZM165.264 104.71C165.264 94.5717 157.045 86.3528 146.907 86.3528V87.7126C156.294 87.7126 163.904 95.3227 163.904 104.71H165.264ZM49.6799 104.71C49.6799 95.3227 57.29 87.7126 66.6776 87.7126V86.3528C56.539 86.3528 48.3201 94.5717 48.3201 104.71H49.6799Z" fill="#3B1B6A"/>
<path d="M67.7436 102.28V103.4H71.9996C71.6636 104.504 71.2956 105.56 70.9116 106.584H78.8156C77.9676 107.64 76.7996 108.664 75.3276 109.624C74.2236 109.24 73.0716 108.872 71.8716 108.552L71.2636 109.448C73.8076 110.136 76.2876 111.064 78.6876 112.248L79.3276 111.24C78.4476 110.824 77.5196 110.424 76.5596 110.072C78.2076 108.888 79.4076 107.688 80.1756 106.504V105.512H72.5596C72.7836 104.856 73.0236 104.152 73.2476 103.4H82.1116V102.28H73.5516C73.7116 101.656 73.8716 101 74.0316 100.296H81.1676V99.2239H74.2716C74.3996 98.6479 74.5116 98.0239 74.6396 97.3839L73.4556 97.2879C73.3276 97.9279 73.1996 98.5679 73.0556 99.2239H68.8316V100.296H72.8156C72.6556 100.968 72.4956 101.624 72.3196 102.28H67.7436ZM88.8876 108.888C87.3196 109.496 85.4796 109.992 83.3676 110.344L83.5116 111.464C85.5276 111.096 87.3196 110.6 88.8876 109.992V108.888ZM86.0396 97.3199C85.3996 99.2239 84.6476 100.92 83.7836 102.392C83.6396 102.6 83.4796 102.744 83.3036 102.808L83.5756 103.864C84.4716 103.752 85.3676 103.64 86.2476 103.512C85.4156 105 84.6956 106.056 84.1036 106.664C83.9596 106.792 83.7836 106.904 83.5756 107L83.8956 108.056C85.4316 107.848 87.0316 107.464 88.7116 106.92V105.88C87.5596 106.264 86.4076 106.568 85.2556 106.792C86.1836 105.656 87.3676 103.736 88.7756 101.032L87.7516 100.648C87.4316 101.288 87.1116 101.896 86.8236 102.472C86.1036 102.584 85.3836 102.68 84.6636 102.744C85.4956 101.496 86.3276 99.8319 87.1436 97.7519L86.0396 97.3199ZM96.6476 100.232L92.6636 100.792V97.3999H91.5116V100.952L89.0636 101.304L89.2396 102.36L91.5436 102.024C91.5596 102.792 91.6076 103.528 91.6876 104.216L88.7916 104.68L88.9516 105.768L91.8316 105.304C91.8956 105.72 91.9596 106.12 92.0556 106.536C92.2476 107.4 92.4876 108.168 92.7916 108.872C91.6076 109.752 90.2796 110.424 88.8076 110.904L89.4796 111.832C90.8396 111.416 92.1196 110.76 93.3036 109.88C93.3996 110.088 93.5276 110.28 93.6716 110.472C94.3596 111.432 95.0796 111.912 95.8476 111.944C96.6796 111.944 97.3196 110.872 97.7676 108.76L96.7916 108.12C96.5036 109.832 96.1356 110.696 95.7196 110.696C95.3036 110.696 94.8396 110.296 94.3116 109.512C94.2476 109.416 94.1996 109.304 94.1356 109.208C95.1276 108.344 96.0396 107.288 96.8876 106.056L95.9756 105.432C95.3036 106.456 94.5356 107.352 93.6716 108.152C93.4476 107.512 93.2556 106.792 93.0956 105.96C93.0476 105.704 92.9996 105.416 92.9676 105.128L97.2556 104.456L97.0796 103.368L92.8396 104.04C92.7756 103.352 92.7276 102.632 92.6956 101.864L96.8076 101.288L96.6476 100.232ZM94.4556 97.3519L93.5596 97.9119C94.3596 98.6479 94.9996 99.3359 95.4476 99.9599L96.3436 99.3359C95.8956 98.7759 95.2716 98.1199 94.4556 97.3519ZM101.024 102.872H103.6V105.544H101.024V102.872ZM103.6 101.832H101.024V99.1279H103.6V101.832ZM101.008 106.584H103.6V110.2C103.6 110.776 103.392 111.064 102.992 111.064C102.608 111.064 102.208 111.032 101.76 111L102.032 112.024H103.312C104.208 112.024 104.656 111.528 104.656 110.568V98.0879H99.9837V105.768C99.9677 108.008 99.6477 109.864 99.0077 111.304L99.8717 112.104C100.528 110.664 100.912 108.824 101.008 106.584ZM107.088 105H107.472C107.824 106.568 108.512 107.976 109.536 109.224C108.896 109.992 108.128 110.616 107.216 111.112L107.824 112.04C108.784 111.528 109.6 110.872 110.304 110.056C111.04 110.776 111.904 111.432 112.928 112.024L113.504 111.048C112.528 110.488 111.68 109.864 110.96 109.16C111.696 108.008 112.224 106.6 112.528 104.952V103.976H107.088V99.1279H111.36C111.328 100.344 111.264 101.128 111.152 101.48C111.056 101.72 110.912 101.88 110.72 101.944C110.528 101.992 110.256 102.024 109.872 102.024C109.424 102.024 109.072 102.008 108.8 102.008L109.104 103H110.4C111.408 103 112 102.664 112.192 102.008C112.384 101.368 112.48 100.056 112.48 98.0719H106V112.088H107.088V105ZM108.464 105H111.504C111.216 106.264 110.784 107.368 110.192 108.328C109.376 107.336 108.8 106.232 108.464 105ZM119.208 97.3519C118.536 98.9519 117.224 100.296 115.304 101.4L116.008 102.328C116.744 101.88 117.4 101.384 118.008 100.84C118.776 101.512 119.608 102.12 120.504 102.648C118.744 103.352 116.712 103.864 114.392 104.184L114.92 105.272C117.512 104.872 119.8 104.216 121.752 103.32C123.736 104.312 125.992 104.952 128.52 105.24L129.048 104.168C126.824 103.944 124.808 103.448 123 102.68C124.472 101.848 125.72 100.84 126.744 99.6559V98.7279H119.768C119.992 98.3439 120.2 97.9439 120.376 97.5119L119.208 97.3519ZM121.736 102.088C120.664 101.528 119.672 100.856 118.776 100.072L118.984 99.8159H125.096C124.152 100.68 123.032 101.448 121.736 102.088ZM120.76 104.472C120.76 105.112 120.696 105.72 120.568 106.296H115.48V107.336H120.248C120.12 107.656 119.944 107.96 119.752 108.248C118.92 109.416 117.176 110.392 114.552 111.16L115.32 112.104C118.264 111.176 120.136 109.976 120.952 108.536C121.16 108.152 121.336 107.752 121.464 107.336H126.2C126.152 108.936 126.008 109.928 125.768 110.312C125.512 110.696 124.92 110.904 123.96 110.92L122.072 110.84L122.36 111.88C123.096 111.912 123.72 111.944 124.232 111.944C125.368 111.944 126.168 111.672 126.632 111.144C127.096 110.616 127.336 109 127.368 106.296H121.736C121.832 105.72 121.896 105.112 121.896 104.472H120.76ZM131.536 98.0079V101.896H136.416V98.0079H131.536ZM135.36 100.92H132.576V98.9999H135.36V100.92ZM138.192 98.0079V101.896H143.168V98.0079H138.192ZM142.128 100.92H139.248V98.9999H142.128V100.92ZM130.24 103.496V104.52H134.656C133.536 105.48 131.968 106.264 129.92 106.872L130.448 107.816C130.896 107.672 131.328 107.528 131.76 107.368V112.088H132.768V111.4H135.504V112.088H136.528V107.048H132.512C134.016 106.376 135.216 105.544 136.112 104.52H138.816C139.616 105.496 140.8 106.344 142.336 107.048H138.064V112.088H139.088V111.4H142.08V112.088H143.104V107.384C143.456 107.512 143.824 107.656 144.224 107.784L144.688 106.808C142.624 106.248 141.072 105.48 140.032 104.52H144.352V103.496H142.144C141.888 103 141.6 102.536 141.264 102.088L140.288 102.408C140.544 102.728 140.784 103.096 141.008 103.496H136.88C137.104 103.112 137.312 102.728 137.472 102.312L136.368 102.2C136.176 102.648 135.936 103.08 135.632 103.496H130.24ZM132.768 110.408V108.008H135.504V110.408H132.768ZM139.088 110.408V108.008H142.08V110.408H139.088Z" fill="#1C1C1D"/>
<path d="M161.865 290.325C162.24 290.325 162.545 290.02 162.545 289.645C162.545 289.269 162.24 288.965 161.865 288.965V290.325ZM172.063 288.965C171.688 288.965 171.383 289.269 171.383 289.645C171.383 290.02 171.688 290.325 172.063 290.325V288.965ZM192.461 325.68C192.836 325.68 193.14 325.376 193.14 325C193.14 324.625 192.836 324.32 192.461 324.32V325.68ZM204.019 324.32C203.643 324.32 203.339 324.625 203.339 325C203.339 325.376 203.643 325.68 204.019 325.68V324.32ZM138.748 290.325H161.865V288.965H138.748V290.325ZM172.063 290.325H218.977V288.965H172.063V290.325ZM192.461 324.32H163.904V325.68H192.461V324.32ZM163.904 324.32H138.748V325.68H163.904V324.32ZM218.977 324.32H204.019V325.68H218.977V324.32ZM120.39 307.322C120.39 317.461 128.609 325.68 138.748 325.68V324.32C129.36 324.32 121.75 316.71 121.75 307.322H120.39ZM235.975 307.322C235.975 316.71 228.364 324.32 218.977 324.32V325.68C229.115 325.68 237.334 317.461 237.334 307.322H235.975ZM237.334 307.322C237.334 297.184 229.115 288.965 218.977 288.965V290.325C228.364 290.325 235.975 297.935 235.975 307.322H237.334ZM121.75 307.322C121.75 297.935 129.36 290.325 138.748 290.325V288.965C128.609 288.965 120.39 297.184 120.39 307.322H121.75Z" fill="#3B1B6A"/>
<path d="M146.934 299.964C145.526 301.5 143.398 302.524 140.55 303.068L141.222 304.124C142.934 303.74 144.406 303.18 145.654 302.444H150.326C149.43 303.756 148.134 304.764 146.47 305.436C145.958 304.796 145.414 304.22 144.838 303.676L143.83 304.156C144.374 304.652 144.902 305.212 145.398 305.82C144.246 306.156 142.966 306.364 141.526 306.46L142.022 307.5C146.694 307.132 149.91 305.404 151.638 302.332V301.42H147.046C147.366 301.132 147.67 300.828 147.958 300.508L146.934 299.964ZM146.326 309.964L145.302 310.444C145.894 311.02 146.454 311.676 146.998 312.396C145.19 313.004 143.03 313.308 140.534 313.324L140.998 314.428C147.206 314.284 151.43 312.332 153.702 308.556V307.644H149.318C149.766 307.308 150.166 306.94 150.55 306.556L149.558 306.012C147.894 307.772 145.318 308.844 141.83 309.196L142.518 310.22C144.454 309.884 146.118 309.372 147.526 308.7H152.262C151.238 310.108 149.846 311.212 148.07 311.98C147.526 311.26 146.934 310.588 146.326 309.964ZM157.166 300.316L156.366 301.068C157.454 301.916 158.302 302.716 158.926 303.484L159.71 302.684C159.022 301.9 158.174 301.116 157.166 300.316ZM155.31 304.94V306.044H157.534V312.38C157.534 312.636 157.406 312.876 157.182 313.1L157.63 314.124C158.75 313.388 159.822 312.556 160.83 311.612L160.51 310.396C159.854 311.02 159.23 311.564 158.654 312.044V304.94H155.31ZM160.99 306.812V307.932H161.87C162.318 309.324 163.134 310.572 164.35 311.692C163.15 312.54 161.662 313.228 159.886 313.756L160.526 314.732C162.398 314.156 163.982 313.404 165.262 312.444C166.382 313.308 167.79 314.06 169.454 314.732L170.078 313.74C168.51 313.164 167.182 312.508 166.094 311.756C167.262 310.668 168.094 309.372 168.606 307.868V306.812H160.99ZM162.958 307.932H167.47C166.958 309.116 166.19 310.14 165.166 311.036C164.11 310.124 163.374 309.084 162.958 307.932ZM162.222 300.636V302.412C162.222 303.676 161.518 304.652 160.126 305.34L160.894 306.22C162.526 305.292 163.358 303.98 163.358 302.284V301.724H166.462V304.332C166.462 305.276 166.942 305.756 167.934 305.756H169.694V304.7H168.222C167.806 304.7 167.598 304.492 167.598 304.092V300.636H162.222ZM183.238 307.708H173.158V314.684H174.262V313.98H182.134V314.684H183.238V307.708ZM174.262 312.988V311.292H177.638V312.988H174.262ZM178.726 312.988V311.292H182.134V312.988H178.726ZM174.262 310.364V308.668H177.638V310.364H174.262ZM178.726 308.668H182.134V310.364H178.726V308.668ZM176.054 299.82C174.886 301.532 173.398 302.908 171.606 303.948L172.342 304.844C173.142 304.332 173.894 303.772 174.598 303.132C175.334 303.884 176.182 304.556 177.142 305.132C175.35 305.932 173.27 306.508 170.87 306.844L171.366 307.852C174.006 307.42 176.31 306.716 178.262 305.74C180.118 306.668 182.358 307.324 184.982 307.724L185.478 306.7C183.11 306.38 181.078 305.868 179.35 305.132C180.758 304.268 181.958 303.244 182.95 302.028V301.148H176.438C176.694 300.812 176.95 300.46 177.19 300.076L176.054 299.82ZM175.286 302.476L175.606 302.156H181.526C180.598 303.084 179.494 303.9 178.214 304.604C177.062 303.996 176.086 303.292 175.286 302.476ZM189.358 306.748V310.636H198.254V306.748H189.358ZM197.102 309.612H190.51V307.756H197.102V309.612ZM190.782 310.988L189.694 311.388C190.238 311.932 190.686 312.508 191.07 313.116H186.91V314.22H200.606V313.116H196.67C197.086 312.572 197.47 311.964 197.822 311.276L196.734 310.908C196.366 311.676 195.934 312.412 195.438 313.116H192.27C191.822 312.284 191.326 311.58 190.782 310.988ZM188.222 302.204L187.454 302.94C188.302 303.532 189.022 304.108 189.614 304.668C188.718 305.324 187.678 305.9 186.494 306.38L187.182 307.276C188.75 306.62 190.062 305.82 191.118 304.86V305.404H196.958V304.732C197.966 305.676 199.166 306.524 200.558 307.276L201.31 306.396C200.334 305.916 199.454 305.356 198.654 304.748C199.406 304.204 200.062 303.564 200.606 302.86L199.806 302.14C199.262 302.844 198.606 303.484 197.822 304.06C197.39 303.676 196.99 303.276 196.638 302.844C197.39 302.316 198.046 301.708 198.606 301.02L197.79 300.3C197.294 300.94 196.702 301.516 195.998 302.028C195.566 301.42 195.198 300.78 194.91 300.108L193.966 300.636C194.574 301.98 195.438 303.228 196.558 304.348H191.63C192.43 303.5 193.054 302.54 193.502 301.484V300.62H188.19V301.676H192.19C191.742 302.508 191.15 303.292 190.414 303.996C189.806 303.404 189.086 302.812 188.222 302.204ZM204.118 300.62V301.66H212.182V303.26H204.662V304.268H212.182V305.82H202.518V306.86H208.694V308.86C206.918 310.492 204.806 311.884 202.342 313.052L202.806 314.124C205.078 312.908 207.046 311.564 208.694 310.06V312.988C208.694 313.452 208.518 313.692 208.198 313.692C207.654 313.692 207.094 313.66 206.502 313.612L206.742 314.7H208.582C209.414 314.7 209.846 314.22 209.846 313.26V309.964C211.286 311.628 213.238 313.036 215.702 314.188L216.278 313.164C214.582 312.428 213.11 311.564 211.862 310.588C213.014 309.98 214.022 309.1 214.918 307.948L214.038 307.212C213.206 308.396 212.214 309.308 211.078 309.948C210.63 309.548 210.23 309.132 209.846 308.684V306.86H216.23V305.82H213.35V300.62H204.118ZM204.246 307.468L203.478 308.204C204.534 308.924 205.35 309.612 205.958 310.252L206.694 309.5C206.038 308.828 205.222 308.14 204.246 307.468Z" fill="#1C1C1D"/>
<path d="M372.635 131.227C373.01 131.227 373.315 130.922 373.315 130.547C373.315 130.171 373.01 129.867 372.635 129.867V131.227ZM382.833 129.867C382.458 129.867 382.154 130.171 382.154 130.547C382.154 130.922 382.458 131.227 382.833 131.227V129.867ZM403.231 166.582C403.606 166.582 403.911 166.277 403.911 165.902C403.911 165.526 403.606 165.222 403.231 165.222V166.582ZM414.789 165.222C414.414 165.222 414.109 165.526 414.109 165.902C414.109 166.277 414.414 166.582 414.789 166.582V165.222ZM353.597 131.227H372.635V129.867H353.597V131.227ZM382.833 131.227H422.948V129.867H382.833V131.227ZM403.231 165.222H374.675V166.582H403.231V165.222ZM374.675 165.222H353.597V166.582H374.675V165.222ZM422.948 165.222H414.789V166.582H422.948V165.222ZM335.24 148.224C335.24 158.363 343.459 166.582 353.597 166.582V165.222C344.21 165.222 336.6 157.612 336.6 148.224H335.24ZM439.946 148.224C439.946 157.612 432.336 165.222 422.948 165.222V166.582C433.087 166.582 441.305 158.363 441.305 148.224H439.946ZM441.305 148.224C441.305 138.086 433.087 129.867 422.948 129.867V131.227C432.336 131.227 439.946 138.837 439.946 148.224H441.305ZM336.6 148.224C336.6 138.837 344.21 131.227 353.597 131.227V129.867C343.459 129.867 335.24 138.086 335.24 148.224H336.6Z" fill="#3B1B6A"/>
<path d="M372.289 147.906H376.017C376.097 148.722 376.209 149.458 376.353 150.114C376.705 151.826 377.169 153.122 377.745 154.002C378.305 154.85 378.833 155.282 379.329 155.282C379.905 155.282 380.353 154.114 380.657 151.81L379.697 151.282C379.537 153.042 379.345 153.922 379.137 153.938C378.929 153.938 378.657 153.602 378.305 152.93C377.937 152.21 377.617 151.138 377.361 149.714C377.265 149.202 377.169 148.594 377.105 147.906H380.433V146.802H377.009C376.945 145.698 376.897 144.402 376.881 142.898C377.969 142.642 378.897 142.386 379.697 142.114L379.057 141.186C377.185 141.826 374.561 142.402 371.185 142.914V153.458C371.185 153.762 371.009 153.97 370.673 154.082L370.977 155.074C372.097 154.706 373.089 154.354 373.921 154.018L373.729 153.01C373.265 153.234 372.785 153.458 372.289 153.65V147.906ZM375.777 143.138C375.777 144.482 375.825 145.714 375.921 146.802H372.289V143.778C373.553 143.57 374.721 143.362 375.777 143.138ZM374.929 152.018L374.129 152.594C374.945 153.634 375.617 154.61 376.145 155.522L377.025 154.93C376.529 154.082 375.825 153.106 374.929 152.018ZM369.633 140.898C368.865 143.362 367.617 145.554 365.905 147.458L366.273 148.674C366.913 148.002 367.489 147.314 368.033 146.578V155.618H369.153V144.834C369.761 143.746 370.273 142.594 370.673 141.378L369.633 140.898ZM382.057 141.794V142.85H385.161C384.361 144.194 383.465 145.442 382.473 146.594V147.426H385.481C385.385 148.994 385.033 150.338 384.457 151.49C383.881 150.722 383.385 149.762 382.937 148.61L381.961 148.978C382.473 150.386 383.097 151.554 383.833 152.482C383.241 153.266 382.489 153.922 381.561 154.45L382.137 155.458C383.113 154.882 383.945 154.162 384.617 153.298C385.001 153.65 385.449 153.954 385.929 154.178C387.529 154.93 390.121 155.314 393.721 155.314H396.121L396.345 154.162C395.257 154.226 394.217 154.258 393.193 154.258C390.201 154.226 388.009 153.922 386.617 153.33C386.137 153.106 385.673 152.786 385.225 152.37C386.025 150.946 386.441 149.186 386.505 147.106V146.45H383.945C384.745 145.458 385.561 144.226 386.425 142.722V141.794H382.057ZM388.089 145.282V152.21H395.737V151.122H392.409V147.25H395.193V146.194H392.409V142.898C393.561 142.706 394.601 142.434 395.497 142.082L394.937 141.106C392.953 141.826 390.441 142.194 387.417 142.194L387.769 143.234C389.033 143.234 390.217 143.17 391.305 143.042V151.122H389.193V145.282H388.089ZM409.633 142.626V145.73H404.529V142.626H409.633ZM404.513 146.786H410.721V141.554H403.409V146.146C403.393 148.578 402.817 150.546 401.665 152.082L402.513 152.85C403.729 151.154 404.385 149.122 404.513 146.786ZM406.305 147.554L405.553 148.29C407.697 149.938 409.393 151.49 410.625 152.962L411.441 152.13C410.065 150.61 408.353 149.09 406.305 147.554ZM398.593 141.17L397.809 141.922C398.945 142.834 399.841 143.682 400.481 144.466L401.313 143.65C400.577 142.818 399.665 142.002 398.593 141.17ZM407.889 155.298H411.553L411.825 154.146C411.409 154.178 410.801 154.194 410.033 154.21C409.249 154.226 408.481 154.242 407.729 154.242C406.497 154.242 405.457 154.226 404.625 154.21C403.697 154.178 402.977 154.05 402.497 153.826C402.049 153.618 401.649 153.282 401.265 152.818C401.137 152.674 401.009 152.546 400.881 152.45V146.466H397.521V147.522H399.809V152.386C399.153 152.674 398.401 153.49 397.553 154.834L398.417 155.618C399.297 154.146 399.921 153.41 400.305 153.41C400.497 153.41 400.705 153.538 400.913 153.81C401.409 154.386 401.969 154.786 402.593 154.978C403.233 155.154 404.049 155.25 405.073 155.266C406.081 155.282 407.025 155.298 407.889 155.298Z" fill="#1C1C1D"/>
</svg>
